<?xml version="1.0" encoding="UTF-8"?>
<!-- Generator: visioncortex VTracer -->
<svg id="svg" version="1.1" xmlns="http://www.w3.org/2000/svg" style="display: block;" viewBox="0 0 512 512"><path d="M0 0 C3.5215805 1.38780172 6.83861006 3.1164904 10.1875 4.875 C11.16436768 5.37604248 12.14123535 5.87708496 13.14770508 6.39331055 C16.10570265 7.91539629 19.05407257 9.45470324 22 11 C22.80695313 11.4213623 23.61390625 11.84272461 24.4453125 12.27685547 C28.24477341 14.26226964 32.03660088 16.26162801 35.82421875 18.26953125 C42.02885704 21.55275258 48.26549203 24.77397191 54.5 28 C63.01839126 32.4100969 71.52515052 36.84033559 80.00878906 41.31689453 C86.08046918 44.51972536 92.16318001 47.70104159 98.25 50.875 C99.21164062 51.37644531 100.17328125 51.87789063 101.1640625 52.39453125 C104.10923845 53.92994964 107.05458591 55.46503849 110 57 C116.75983089 60.52279166 123.51872189 64.04735994 130.27490234 67.57714844 C132.05857651 68.50845582 133.84273766 69.43883124 135.62744141 70.36816406 C164.30110456 85.30110456 164.30110456 85.30110456 167 88 C166.72116057 95.77563657 164.29830179 101.93188709 161.1875 109 C160.45370117 110.69709106 160.45370117 110.69709106 159.70507812 112.4284668 C148.17724942 138.83298042 135.25271903 164.54788747 120 189 C119.55237305 189.72541992 119.10474609 190.45083984 118.64355469 191.19824219 C112.00077601 201.89911867 105.46292346 211.52837884 92.84765625 215.36328125 C73.0317002 219.79400942 49.18498144 206.83881198 32 198 C30 196 30 196 29.66235352 193.60229492 C30.0857228 190.33932082 30.96656344 189.52219343 33.40234375 187.36328125 C34.12341309 186.70900146 34.84448242 186.05472168 35.58740234 185.38061523 C36.36293457 184.69813721 37.1384668 184.01565918 37.9375 183.3125 C39.51419927 181.87511205 41.0884406 180.43502312 42.66015625 178.9921875 C43.41699707 178.30092773 44.17383789 177.60966797 44.95361328 176.89746094 C55.43765229 167.17639781 71.25103761 150.29284896 74.125 135.8125 C73.96300182 130.87155561 72.92754397 128.9561405 70 125 C67.04345856 122.57141239 63.85047912 122.7337102 60.09765625 122.63671875 C56.1167879 123.32614288 53.61616139 125.27192107 51.04296875 128.3125 C50.43066406 129.199375 49.81835938 130.08625 49.1875 131 C48.4965625 131.98097656 47.805625 132.96195313 47.09375 133.97265625 C46.4028125 134.97167969 45.711875 135.97070312 45 137 C39.23365843 145.30684041 32.96617464 152.70258074 26 160 C25.27039063 160.78246094 24.54078125 161.56492187 23.7890625 162.37109375 C19.40832868 166.93910801 14.71094439 171.06459456 9.8125 175.0625 C9.23008545 175.55242432 8.6476709 176.04234863 8.04760742 176.54711914 C4.16245924 179.63389619 1.89990086 180.48315373 -3 180 C-5.58276367 178.8293457 -5.58276367 178.8293457 -8.16796875 177.17578125 C-9.13532959 176.56492676 -10.10269043 175.95407227 -11.09936523 175.32470703 C-12.62799194 174.32866455 -12.62799194 174.32866455 -14.1875 173.3125 C-15.23945557 172.6407373 -16.29141113 171.96897461 -17.37524414 171.27685547 C-43.51660713 154.48339287 -43.51660713 154.48339287 -47 151 C-47.04080783 149.00041636 -47.04254356 146.99954746 -47 145 C-45.20833333 144.10416667 -43.41666667 143.20833333 -41.625 142.3125 C-40.52285156 141.75691406 -39.42070312 141.20132813 -38.28515625 140.62890625 C-36.34930884 139.66903898 -34.40251335 138.72990329 -32.43359375 137.83984375 C-27.1935295 135.43131339 -22.64678634 132.46671133 -18.0625 129 C-17.22827515 128.37689941 -17.22827515 128.37689941 -16.37719727 127.74121094 C-12.53395741 124.74488654 -9.5499157 121.84662243 -8.6015625 116.9375 C-8.65517126 112.50584287 -9.00117459 109.49862965 -12 106 C-16.09220154 103.0769989 -19.58026385 102.37063397 -24.45703125 103.09765625 C-28.9020083 104.67490617 -32.25889078 107.74864646 -35.921875 110.65234375 C-47.22856808 119.27584951 -61.24973992 122.40608647 -75 125 C-76.051875 125.20625 -77.10375 125.4125 -78.1875 125.625 C-84.33380112 124.61740965 -87.67576759 120.25570258 -92 116 C-93.28175887 114.86372452 -94.57275063 113.73773283 -95.875 112.625 C-123.22823878 88.69782345 -123.22823878 88.69782345 -124.3046875 77.9609375 C-124.64537456 69.24335691 -123.29909684 63.82000687 -117.625 57.25 C-110.72282016 51.33384585 -104.78411054 49.73321833 -95.9375 47.75 C-65.0796973 40.37696707 -35.05906048 26.85464281 -11.74609375 4.875 C-11.06675781 4.235625 -10.38742188 3.59625 -9.6875 2.9375 C-9.11386719 2.36902344 -8.54023438 1.80054688 -7.94921875 1.21484375 C-5.0006614 -0.62283428 -3.4631011 -0.49643078 0 0 Z " transform="translate(200,237)" style="fill: #000000;"/><path d="M0 0 C8.60933588 8.05277275 14.40919643 19.25905366 15.15625 31.0625 C15.20186372 32.54129342 15.23319233 34.02059874 15.25 35.5 C15.26023193 36.1801416 15.27046387 36.8602832 15.28100586 37.56103516 C15.10679734 47.74309663 10.83041881 56.4193492 6.25 65.3125 C5.71552246 66.36526123 5.18104492 67.41802246 4.63037109 68.50268555 C0.6609127 76.29583126 -3.39401009 84.04345909 -7.4921875 91.76953125 C-10.7653659 97.94985787 -13.97321647 104.16390522 -17.1875 110.375 C-18.96995813 113.81304323 -20.7529981 117.2507842 -22.53613281 120.68847656 C-23.57861836 122.70008527 -24.61980918 124.71236596 -25.65917969 126.72558594 C-26.95574645 129.23611786 -28.25707783 131.74406253 -29.5625 134.25 C-29.95671143 135.00812988 -30.35092285 135.76625977 -30.75708008 136.54736328 C-33.80560825 142.33155281 -37.21326715 147.80418738 -40.88671875 153.2109375 C-42.39287118 155.75619744 -42.39287118 155.75619744 -42.07421875 158.375 C-41.05421017 161.25079512 -39.7662626 163.81668694 -38.3125 166.5 C-28.3498805 185.92352436 -29.49708357 207.13695957 -35.98339844 227.35595703 C-36.82521798 229.87804065 -37.7120829 232.37783743 -38.625 234.875 C-38.90093994 235.65931396 -39.17687988 236.44362793 -39.46118164 237.25170898 C-41.52328279 242.57063483 -41.52328279 242.57063483 -44.28295898 243.83520508 C-48.670673 243.89532085 -51.72911335 241.99034327 -55.5390625 239.94921875 C-56.75932632 239.31679008 -56.75932632 239.31679008 -58.00424194 238.67158508 C-60.61407621 237.31498745 -63.21319939 235.9391541 -65.8125 234.5625 C-67.50714336 233.6777536 -69.20245063 232.79427763 -70.8984375 231.91210938 C-75.15221472 229.69507625 -79.39702467 227.46150122 -83.6385498 225.22113037 C-87.83742389 223.00365592 -92.04006765 220.79334676 -96.2421875 218.58203125 C-97.03448761 218.16483322 -97.82678772 217.74763519 -98.64309692 217.3177948 C-104.6501131 214.15519512 -110.66569198 211.00934771 -116.6875 207.875 C-123.6130052 204.26656899 -130.53117828 200.64500313 -137.4375 197 C-145.16839518 192.92128634 -152.92561211 188.89437595 -160.6875 184.875 C-164.11961195 183.09533305 -167.55153597 181.31530423 -170.98339844 179.53515625 C-173.02223084 178.47876641 -175.06185777 177.42390755 -177.10253906 176.37109375 C-192.76129389 168.2913338 -192.76129389 168.2913338 -198.875 164.625 C-199.53886719 164.22796875 -200.20273438 163.8309375 -200.88671875 163.421875 C-202.1875 161.875 -202.1875 161.875 -202.78125 159.140625 C-201.92297145 154.42009299 -199.33839138 152.17377724 -196 148.875 C-194.83845844 147.68885499 -193.67828517 146.50136843 -192.51953125 145.3125 C-191.66742065 144.44939209 -191.66742065 144.44939209 -190.7980957 143.56884766 C-189.30922289 142.00301477 -187.94510331 140.39540273 -186.59375 138.7109375 C-176.49071794 126.80379257 -158.43095613 117.72267862 -143.1875 114.875 C-141.62770826 114.85535868 -140.06737437 114.86522867 -138.5078125 114.8984375 C-131.14619211 114.99238292 -131.14619211 114.99238292 -124.1875 112.875 C-119.64076161 108.13469817 -117.56819781 101.59319699 -115.26171875 95.56054688 C-113.67775368 91.6006342 -111.67307732 87.9223282 -109.625 84.1875 C-108.79248934 82.62273042 -107.96326219 81.05621102 -107.13671875 79.48828125 C-106.67958496 78.62154785 -106.22245117 77.75481445 -105.75146484 76.86181641 C-102.81941182 71.26226338 -99.93198431 65.63966981 -97.04077148 60.01895142 C-95.93780033 57.87558362 -94.8333527 55.73298266 -93.72851562 53.59057617 C-90.53995079 47.40515481 -87.35538277 41.21815376 -84.21255493 35.00933838 C-83.27726609 33.163496 -82.33806455 31.31970146 -81.39746094 29.4765625 C-80.25895718 27.24346422 -79.12748099 25.00676133 -78.00488281 22.765625 C-69.950226 7.0267555 -60.87083903 -4.0783532 -43.80078125 -9.9453125 C-28.57179122 -13.82774802 -12.17523273 -9.76822895 0 0 Z " transform="translate(421.1875,55.125)" style="fill: #000000;"/><path d="M0 0 C5.18539512 3.58039187 9.71193436 7.7528697 11.1328125 14.0703125 C12.10781005 20.85380611 11.21829605 25.77135669 7.51953125 31.53515625 C3.7366751 36.51775319 -0.24812655 38.36654266 -6.25 39.625 C-12.83753448 40.18857234 -17.53752529 38.81465036 -22.6875 34.625 C-27.52726674 30.00392606 -29.47585131 25.54676485 -29.8125 18.875 C-29.60974366 13.07440571 -27.91882161 8.55146409 -23.94921875 4.27734375 C-17.08767082 -1.80407987 -8.57250211 -3.01625074 0 0 Z " transform="translate(130.375,161.1875)" style="fill: #000000;"/><path d="M0 0 C4.95070054 3.58022765 7.86536359 7.25914839 9.3203125 13.25390625 C10.25378468 19.53103039 9.12344365 23.9797573 6.0078125 29.56640625 C1.94131435 34.67857536 -1.69483953 37.14700744 -8.1796875 38.31640625 C-14.89134718 38.61692833 -19.86963948 37.13282707 -25.26171875 33.10546875 C-29.97717173 28.70694031 -31.38929576 24.17862534 -31.6796875 17.81640625 C-31.43012851 11.81035329 -29.87870775 7.21508005 -25.75390625 2.78515625 C-18.34868815 -3.79725984 -8.65678614 -5.02934741 0 0 Z " transform="translate(78.1796875,223.68359375)" style="fill: #000000;"/></svg>