<?xml version="1.0" encoding="UTF-8"?>
<!-- Generator: visioncortex VTracer -->
<svg id="svg" version="1.1" xmlns="http://www.w3.org/2000/svg" style="display: block;" viewBox="0 0 512 512"><path d="M0 0 C1.97458868 -0.01169993 1.97458868 -0.01169993 3.98906803 -0.02363622 C7.61869536 -0.04439604 11.24766044 -0.03424475 14.8772893 -0.01870513 C18.80103948 -0.00735055 22.72467907 -0.02487459 26.64840698 -0.03860474 C34.32537989 -0.06079807 42.0021079 -0.05605345 49.67909026 -0.04154153 C55.92020531 -0.03023387 62.1612519 -0.02872499 68.40237427 -0.03416061 C69.29179846 -0.03492678 70.18122265 -0.03569294 71.09759909 -0.03648233 C72.90464046 -0.03808101 74.7116818 -0.03970208 76.51872313 -0.04134528 C93.44977833 -0.05559134 110.38069801 -0.03922802 127.31173098 -0.01234345 C141.82857535 0.0099943 156.34521978 0.00611385 170.86206055 -0.01693726 C187.7339364 -0.04371548 204.60569357 -0.05421815 221.4775877 -0.03887594 C223.27785427 -0.03728325 225.07812085 -0.03571139 226.87838745 -0.03416061 C227.76407396 -0.03338924 228.64976047 -0.03261786 229.56228596 -0.03182311 C235.79343495 -0.02751217 242.02450845 -0.03477957 248.25564575 -0.04655838 C255.85291699 -0.0606044 263.44993004 -0.05673939 271.04717183 -0.03015466 C274.92093436 -0.01704458 278.79426695 -0.0118156 282.66802597 -0.02840042 C286.87264293 -0.04612905 291.07618129 -0.02491319 295.28076172 0 C296.49769746 -0.01115361 297.7146332 -0.02230722 298.96844578 -0.03379881 C307.33324127 0.06226131 314.17927073 1.6379619 320.54669094 7.34288728 C328.24914407 15.4142729 327.97863715 24.18728564 327.73988557 34.70818257 C327.37041327 45.5754847 326.55346244 56.42794808 325.82441223 67.27608693 C325.55652396 71.28052389 325.29513723 75.2853865 325.03282166 79.29019165 C324.51942329 87.11150974 323.99983837 94.93240457 323.47770783 102.75314414 C323.0532788 109.1107666 322.63062394 115.46850454 322.20919228 121.82632637 C321.01216974 139.88162773 319.81037882 157.93660263 318.60250636 175.99118143 C318.53758063 176.96166388 318.4726549 177.93214634 318.40576172 178.93203735 C318.34075513 179.90371298 318.27574853 180.87538861 318.20877204 181.87650896 C317.15382455 197.64961575 316.11039645 213.42346099 315.07212027 229.19767313 C314.0039788 245.42356663 312.92717201 261.64886512 311.84137136 277.87358671 C311.23270913 286.97129358 310.62761608 296.0692051 310.03188133 305.16776848 C309.52513143 312.90628088 309.01033509 320.64420611 308.48514958 328.3814901 C308.21765941 332.32568394 307.95387695 336.27003115 307.70025635 340.2151432 C307.46771879 343.83082568 307.22435001 347.44561487 306.97256915 351.0600068 C306.8417866 352.97696102 306.7223628 354.89467993 306.60343331 356.812406 C305.79863322 368.06941548 304.15096796 376.81096022 295.64038086 384.63491821 C291.30950912 388.10162529 287.5215477 389.75726641 281.95195484 389.76913929 C280.49781955 389.77582606 280.49781955 389.77582606 279.0143078 389.78264791 C277.94681965 389.78246355 276.87933151 389.78227918 275.77949524 389.78208923 C274.64734894 389.78576592 273.51520263 389.78944261 272.34874886 389.79323071 C268.53490357 389.8042906 264.72108551 389.8081153 260.90722656 389.81192017 C258.18088039 389.8176499 255.45453831 389.82481673 252.72819519 389.83183289 C244.53208401 389.85159668 236.33597159 389.8616635 228.13984254 389.87056068 C224.28011401 389.87494381 220.42038685 389.88031056 216.56065941 389.88554955 C203.72990485 389.90256192 190.89915114 389.91705601 178.06838703 389.92429829 C174.7386252 389.92620818 171.40886337 389.92812851 168.07910156 389.93008423 C166.83770768 389.93080984 166.83770768 389.93080984 165.57123514 389.93155011 C152.16521179 389.93985012 138.75927767 389.96518649 125.35329328 389.99766491 C111.58960683 390.03073805 97.82596574 390.04874729 84.06223935 390.05194253 C76.33443397 390.05410742 68.60675873 390.06285288 60.87899208 390.0884037 C54.2975015 390.11011424 47.71617265 390.11815945 41.13465033 390.10843692 C37.77757012 390.10389303 34.42109404 390.10796582 31.06401443 390.12519836 C27.42112229 390.14285212 23.77907699 390.135842 20.13618469 390.12266541 C18.55168289 390.13911927 18.55168289 390.13911927 16.93517095 390.15590554 C9.41939469 390.09026224 4.50920806 388.57248789 -1.56665039 383.95913696 C-8.22020192 377.17607591 -10.19391168 370.33364818 -10.82624912 360.92905045 C-10.90487487 359.78354194 -10.98350062 358.63803343 -11.06450897 357.45781255 C-11.147197 356.2038508 -11.22988502 354.94988905 -11.31507874 353.65792847 C-11.40640851 352.30865074 -11.49802546 350.95939243 -11.58990473 349.61015201 C-11.84147159 345.90334844 -12.08889498 342.19627815 -12.33563054 338.48915029 C-12.60250977 334.49007966 -12.87318653 330.4912658 -13.14335632 326.49241638 C-13.67217936 318.65560018 -14.19734326 310.81854288 -14.72110755 302.98138711 C-15.14722819 296.6057256 -15.57446806 290.23014006 -16.00250053 283.85460663 C-17.34928921 263.79268365 -18.69218319 243.7305037 -20.03213333 223.66812286 C-21.08771385 207.86570607 -22.1492085 192.06369303 -23.21347363 176.26185897 C-24.30714536 160.02249777 -25.39657895 143.78285712 -26.48156446 127.5429132 C-27.09038104 118.43141765 -27.70087779 109.32004221 -28.3158741 100.20896149 C-28.83988206 92.44526577 -29.35988987 84.68131446 -29.87486774 76.91701433 C-30.13734191 72.96135497 -30.40157053 69.00583515 -30.67081833 65.05063057 C-33.84583206 18.35235811 -33.84583206 18.35235811 -26.79711914 8.94741821 C-19.20392797 0.99052799 -10.55081618 -0.09670163 0 0 Z M8.64038086 39.63491821 C8.64038086 48.15036777 8.77108649 56.46325048 9.35496521 64.93045044 C9.43184714 66.09619803 9.50872907 67.26194562 9.58794075 68.46301889 C9.79952811 71.65821668 10.01493089 74.85312922 10.23203862 78.04795575 C10.46629221 81.50928456 10.69549951 84.9709482 10.925354 88.43257141 C11.37535238 95.19789431 11.8298907 101.96290476 12.28594666 108.72782171 C12.81773328 116.61910719 13.34470338 124.51071215 13.87143088 132.40233666 C14.81189748 146.49067418 15.75630495 160.57874465 16.703125 174.66665649 C17.6201946 188.31200724 18.53509012 201.95750112 19.44726562 215.60317993 C19.50345314 216.44370802 19.55964065 217.28423612 19.61753082 218.15023476 C19.84343124 221.52965384 20.06932255 224.90907354 20.29520031 228.28849414 C21.27190281 242.90059633 22.25012944 257.51259656 23.22880378 272.12456679 C23.33404931 273.69593317 23.43928874 275.26729996 23.54452214 276.83866715 C24.19724685 286.58515121 24.85075553 296.33158211 25.50564575 306.07792091 C25.68772513 308.78799918 25.86951948 311.49809631 26.05104256 314.2082119 C26.2996916 317.91864438 26.5491464 321.62902185 26.79881287 325.33938599 C26.90533563 326.93266464 26.90533563 326.93266464 27.01401037 328.55813074 C27.51073719 335.92160702 28.0742779 343.27557975 28.64038086 350.63491821 C107.18038086 350.63491821 185.72038086 350.63491821 266.64038086 350.63491821 C269.19788086 312.60241821 271.75538086 274.56991821 274.39038086 235.38491821 C275.18927734 223.50588501 275.98817383 211.62685181 276.8112793 199.3878479 C277.54570732 188.4649063 277.54570732 188.4649063 278.28009033 177.54196167 C278.59983193 172.7862595 278.91966524 168.0305635 279.23956299 163.27487183 C279.32116086 162.06171783 279.40275874 160.84856383 279.48682928 159.59864759 C279.65186788 157.14498379 279.81692503 154.69132123 279.98200083 152.23765993 C280.38559288 146.23708396 280.78850957 140.23646411 281.18990326 134.23574066 C281.89973437 123.62842643 282.61193476 113.02131273 283.34123306 102.41531835 C283.72111779 96.89045729 284.09823097 91.36541145 284.4735548 85.84023871 C284.69792847 82.54000918 284.92437449 79.23994254 285.15376234 75.94005728 C285.40725444 72.29134544 285.65526533 68.64229688 285.90216064 64.99313354 C285.97729212 63.93186516 286.0524236 62.87059678 286.12983179 61.77716875 C286.62511269 54.34495689 286.64038086 47.12549197 286.64038086 39.63491821 C194.90038086 39.63491821 103.16038086 39.63491821 8.64038086 39.63491821 Z " transform="translate(108.359619140625,122.36508178710938)" style="fill: #000000;"/><path d="M0 0 C1.57025417 -0.00711742 3.14050578 -0.01481868 4.71075439 -0.02307129 C7.99213903 -0.03646362 11.27328331 -0.03810943 14.5546875 -0.03222656 C18.72486489 -0.02634536 22.89387206 -0.05687993 27.0638237 -0.09734344 C30.30529813 -0.12341271 33.54649827 -0.12608047 36.78806305 -0.12245178 C38.32361024 -0.12412616 39.85917249 -0.13360327 41.39461517 -0.15159607 C56.8162277 -0.31240781 68.48112119 3.55693058 79.7578125 14.30859375 C88.06933596 23.03034261 91.96917841 34.33717185 91.87109375 46.25 C91.86489014 47.23033203 91.85868652 48.21066406 91.85229492 49.22070312 C91.84431885 49.96255859 91.83634277 50.70441406 91.828125 51.46875 C92.88555405 51.46208817 93.94298309 51.45542633 95.03245544 51.44856262 C105.02188102 51.38761653 115.01126862 51.34271267 125.00083828 51.31331348 C130.13597328 51.29769071 135.27095757 51.2765145 140.40600586 51.24243164 C145.36621128 51.20971715 150.3262722 51.19187152 155.28657722 51.18411827 C157.17430965 51.17859642 159.0620346 51.16781375 160.94970512 51.15155983 C163.60392926 51.12962464 166.25756433 51.12678975 168.91186523 51.12817383 C170.06957428 51.11199509 170.06957428 51.11199509 171.25067139 51.0954895 C177.69775126 51.13161464 184.10744227 52.24924567 189.203125 56.40625 C190.0075 57.4271875 190.0075 57.4271875 190.828125 58.46875 C191.6634375 59.4896875 191.6634375 59.4896875 192.515625 60.53125 C196.06569015 65.77182236 195.5495771 72.42396204 194.828125 78.46875 C192.49145187 84.461325 189.14947372 87.79572024 183.3406353 90.61131191 C178.2696634 92.34186977 172.99885439 92.01534133 167.69555664 91.97668457 C166.37946191 91.98292453 165.06336718 91.9891645 163.70739079 91.99559355 C160.06946368 92.01224207 156.43195803 92.00406121 152.79402971 91.99164867 C148.86484499 91.98258202 144.93573171 91.9965759 141.00656128 92.00756836 C133.31530834 92.02534098 125.62421167 92.02151923 117.93295264 92.0099178 C111.68129174 92.00087879 105.42967459 91.99966149 99.17800903 92.00401306 C98.28773642 92.00462599 97.3974638 92.00523893 96.48021322 92.00587043 C94.67155733 92.00714935 92.86290146 92.00844621 91.05424559 92.0097608 C74.10038796 92.02116291 57.14661689 92.00805868 40.19277346 91.98655933 C25.65028219 91.96868868 11.10791865 91.97179289 -3.43457031 91.99023438 C-20.32837432 92.0116476 -37.22210248 92.02006431 -54.11591816 92.00778532 C-55.91786511 92.00651114 -57.71981206 92.00525366 -59.52175903 92.00401306 C-60.40831694 92.00339596 -61.29487485 92.00277886 -62.20829815 92.00214306 C-68.4513738 91.99869151 -74.69440129 92.00451428 -80.93746948 92.01393127 C-88.54725506 92.02515766 -96.15687562 92.0220978 -103.76664233 92.0008083 C-107.64819211 91.99030643 -111.52946691 91.98616114 -115.41101456 91.99940491 C-119.62068394 92.01355083 -123.82966093 91.99664364 -128.03930664 91.97668457 C-129.2634323 91.98560746 -130.48755796 91.99453034 -131.74877834 92.00372362 C-139.6074894 91.93134975 -145.25449896 91.02800771 -151.265625 85.56640625 C-155.73396441 79.09972615 -156.32958981 73.19350227 -155.171875 65.46875 C-153.46355029 60.09701786 -149.74810617 56.6093008 -145.171875 53.46875 C-139.80378998 51.55951275 -135.09328365 51.18991024 -129.48266602 51.24169922 C-128.64283676 51.24140717 -127.80300751 51.24111511 -126.93772888 51.24081421 C-124.18363833 51.24219876 -121.42982408 51.25771848 -118.67578125 51.2734375 C-116.75764616 51.27717074 -114.83950915 51.28001625 -112.92137146 51.28201294 C-107.88915684 51.28962487 -102.85705888 51.30925231 -97.82489014 51.3314209 C-92.68340635 51.351932 -87.54190359 51.36102589 -82.40039062 51.37109375 C-72.32416768 51.39250058 -62.24803107 51.42660694 -52.171875 51.46875 C-52.17704132 50.71311768 -52.18220764 49.95748535 -52.18753052 49.17895508 C-52.19355789 47.69238403 -52.19355789 47.69238403 -52.19970703 46.17578125 C-52.20487335 45.19327393 -52.21003967 44.2107666 -52.21536255 43.19848633 C-52.03726577 32.019258 -47.00722852 21.23196981 -39.421875 13.15625 C-27.68884864 2.25012264 -15.48024733 -0.00858551 0 0 Z M-10.4296875 41.57275391 C-12.77328466 44.9051843 -12.77328466 44.9051843 -12.171875 51.46875 C8.948125 51.46875 30.068125 51.46875 51.828125 51.46875 C52.42953466 44.9051843 52.42953466 44.9051843 50.0859375 41.57275391 C45.12108202 38.36628474 40.49722043 38.75323244 34.703125 38.8046875 C33.52347168 38.79990387 32.34381836 38.79512024 31.12841797 38.79019165 C28.63703069 38.78679273 26.14559881 38.79599435 23.65429688 38.81689453 C19.84143601 38.84365657 16.03151932 38.81714257 12.21875 38.78515625 C9.7968685 38.78846034 7.37498884 38.79486656 4.953125 38.8046875 C3.81343262 38.79456635 2.67374023 38.78444519 1.49951172 38.77401733 C-3.35923176 38.84594799 -6.28713126 38.897353 -10.4296875 41.57275391 Z " transform="translate(236.171875,-0.46875)" style="fill: #000000;"/><path d="M0 0 C4.89750372 2.86022246 7.8694378 6.2129167 9.77102661 11.65441895 C10.63790298 15.43121555 10.72132468 18.24369175 10.41357422 22.09179688 C10.36196577 22.76466484 10.31035732 23.43753281 10.25718498 24.13079071 C10.06399424 26.54733909 9.84643981 28.96087738 9.625 31.375 C9.53902809 32.33129303 9.45305618 33.28758606 9.36447906 34.27285767 C8.61941834 42.4879844 7.81753344 50.69728171 7.0078125 58.90625 C6.88008327 60.20549911 6.75235405 61.50474823 6.62075424 62.84336853 C6.01549979 68.99883339 5.40763089 75.15403255 4.7962867 81.30889559 C4.09486848 88.37133186 3.40266632 95.43459443 2.7181083 102.49868441 C2.18476479 107.9962479 1.64301186 113.49294322 1.09499061 118.98906279 C0.7693291 122.25712145 0.44827571 125.52551915 0.13397598 128.79469299 C-0.2166611 132.43259161 -0.58103192 136.06886987 -0.94873047 139.70507812 C-1.04858246 140.77326782 -1.14843445 141.84145752 -1.25131226 142.9420166 C-1.93283253 149.50135129 -2.696176 156.15543891 -7.05859375 161.3984375 C-7.63738281 161.84445312 -8.21617187 162.29046875 -8.8125 162.75 C-9.67681641 163.44222656 -9.67681641 163.44222656 -10.55859375 164.1484375 C-16.3471056 168.05723905 -21.50948325 167.93865615 -28.375 167.375 C-34.21081482 165.61324458 -37.85158365 161.18936503 -41.375 156.375 C-44.26037931 147.71886208 -42.22710636 137.0018536 -41.30517578 128.05810547 C-41.19134552 126.90344788 -41.07751526 125.74879028 -40.9602356 124.55914307 C-40.58658568 120.78616345 -40.20371377 117.01418766 -39.8203125 113.2421875 C-39.55562665 110.59673216 -39.29136186 107.95123765 -39.02755737 105.30569458 C-38.47548769 99.77967346 -37.91830873 94.25418623 -37.35791016 88.72900391 C-36.71292189 82.36928401 -36.07565679 76.00882676 -35.442608 69.64790809 C-34.82957794 63.4896114 -34.21146068 57.33183568 -33.59093857 51.1742897 C-33.32901479 48.57104605 -33.06828855 45.9676816 -32.80881119 43.36419296 C-32.44480054 39.72003797 -32.07497953 36.07651727 -31.70361328 32.43310547 C-31.59859497 31.37098846 -31.49357666 30.30887146 -31.38537598 29.21456909 C-29.319755 9.17890808 -29.319755 9.17890808 -24.5625 4.3125 C-23.89605469 3.59964844 -23.22960937 2.88679687 -22.54296875 2.15234375 C-16.27560342 -2.98576656 -7.26868136 -3.31021542 0 0 Z " transform="translate(343.375,234.625)" style="fill: #000000;"/><path d="M0 0 C5.52292334 2.90680176 9.44930906 7.6283826 11.90625 13.3125 C12.31855011 15.4355011 12.31855011 15.4355011 12.55090332 17.7590332 C12.64331802 18.6443573 12.73573273 19.5296814 12.83094788 20.4418335 C12.92347336 21.40591125 13.01599884 22.36998901 13.11132812 23.36328125 C13.21569687 24.38512512 13.32006561 25.40696899 13.42759705 26.45977783 C13.77171815 29.84747623 14.10462849 33.23617925 14.4375 36.625 C14.67578775 38.99282622 14.91477141 41.3605825 15.15441895 43.72827148 C15.78531111 49.98019258 16.40672052 56.23302156 17.02618408 62.48608398 C17.65111558 68.77775022 18.28489624 75.06852365 18.91796875 81.359375 C19.95550536 91.68115792 20.98891435 102.00334093 22.01183319 112.32658386 C22.49949895 117.24520275 22.99181677 122.16323213 23.49707031 127.08007812 C23.58970406 127.98733139 23.6823378 128.89458466 23.77777863 129.82933044 C23.94892263 131.50274389 24.12171829 133.17598975 24.29662323 134.84901428 C26.30361365 154.54096021 26.30361365 154.54096021 21.90625 160.3125 C16.57913886 165.62851299 12.91751651 168.43120304 5.21875 168.6875 C-0.84929202 168.6361381 -4.55504402 167.30305308 -9.09375 163.3125 C-15.50756754 156.72989779 -15.67244634 148.57216989 -16.5300293 139.85644531 C-16.65872406 138.60366791 -16.78741882 137.3508905 -16.92001343 136.06015015 C-17.27145176 132.63496761 -17.61407549 129.20895799 -17.95454764 125.78267002 C-18.24026971 122.91496149 -18.53017678 120.04768209 -18.82002574 117.18038821 C-19.5043095 110.40995001 -20.18129862 103.63880939 -20.85375977 96.8671875 C-21.54567916 89.90092986 -22.24989623 82.93599358 -22.96022671 75.97159123 C-23.57126432 69.97632333 -24.1745545 63.98030954 -24.77175075 57.98364711 C-25.12779563 54.40926104 -25.48668619 50.83522206 -25.85306358 47.26187897 C-26.26184642 43.27102987 -26.65444597 39.278743 -27.0456543 35.28613281 C-27.16766708 34.11591583 -27.28967987 32.94569885 -27.41539001 31.74002075 C-28.33935776 22.08084884 -28.94819271 13.44367043 -23.09375 5.3125 C-16.7558196 -0.70040833 -8.43836527 -2.77080651 0 0 Z " transform="translate(186.09375,233.6875)" style="fill: #000000;"/><path d="M0 0 C4.38803913 3.17619759 7.05420035 7.13019482 8.75390625 12.26953125 C9.01117516 15.03323841 9.01117516 15.03323841 9.02133179 18.09394836 C9.02986176 19.25882782 9.03839172 20.42370728 9.04718018 21.62388611 C9.0462738 22.89309402 9.04536743 24.16230194 9.04443359 25.4699707 C9.05042144 26.82717253 9.05722758 28.18437096 9.06478882 29.54156494 C9.08243126 33.221459 9.08714348 36.90125999 9.08842039 40.58119226 C9.08984368 42.88270738 9.09411668 45.18419897 9.09941483 47.48570824 C9.11791016 55.52198153 9.12608617 63.55818855 9.12451172 71.59448242 C9.12331084 79.07389443 9.14440369 86.55301762 9.17599905 94.03235656 C9.20219231 100.46311619 9.21287772 106.89378167 9.2116009 113.3245942 C9.21109211 117.16126076 9.21672902 120.99767062 9.237957 124.83428383 C9.25739082 128.44512858 9.25742933 132.05547317 9.24292374 135.66633606 C9.23985198 137.61377905 9.25647659 139.56122237 9.27380371 141.5085907 C9.21664649 149.50298525 8.39124555 155.14721337 2.9375 161.328125 C2.36128906 161.78316406 1.78507812 162.23820313 1.19140625 162.70703125 C0.61261719 163.18011719 0.03382813 163.65320313 -0.5625 164.140625 C-5.43329267 167.40665535 -11.64462149 166.78536073 -17.24609375 166.26953125 C-22.66492513 164.56089072 -26.03948831 160.75877887 -29.24609375 156.26953125 C-31.04221087 152.53718302 -31.49982683 149.57134753 -31.51351929 145.44511414 C-31.52204926 144.28023468 -31.53057922 143.11535522 -31.53936768 141.91517639 C-31.5384613 140.64596848 -31.53755493 139.37676056 -31.53662109 138.0690918 C-31.54260894 136.71188997 -31.54941508 135.35469154 -31.55697632 133.99749756 C-31.57461876 130.3176035 -31.57933098 126.63780251 -31.58060789 122.95787024 C-31.58203118 120.65635512 -31.58630418 118.35486353 -31.59160233 116.05335426 C-31.61009766 108.01708097 -31.61827367 99.98087395 -31.61669922 91.94458008 C-31.61549834 84.46516807 -31.63659119 76.98604488 -31.66818655 69.50670594 C-31.69437981 63.07594631 -31.70506522 56.64528083 -31.7037884 50.2144683 C-31.70327961 46.37780174 -31.70891652 42.54139188 -31.7301445 38.70477867 C-31.74957832 35.09393392 -31.74961683 31.48358933 -31.73511124 27.87272644 C-31.73203948 25.92528345 -31.74866409 23.97784013 -31.76599121 22.0304718 C-31.71209732 14.49250805 -31.21048451 8.5172764 -25.8341732 2.75669384 C-18.3521589 -3.92386283 -8.74193433 -4.99791397 0 0 Z " transform="translate(267.24609375,235.73046875)" style="fill: #000000;"/></svg>