<?xml version="1.0" encoding="UTF-8"?>
<!-- Generator: visioncortex VTracer -->
<svg id="svg" version="1.1" xmlns="http://www.w3.org/2000/svg" style="display: block;" viewBox="0 0 512 512"><path d="M0 0 C7.73317924 5.06851266 14.05872849 11.75486036 20.56298828 18.2565918 C21.8151145 19.5010857 23.06763806 20.74517994 24.32052612 21.98890686 C27.70546479 25.35200389 31.08390397 28.72155515 34.46048594 32.09304023 C36.57421504 34.20311454 38.68923379 36.31188754 40.80468369 38.42023659 C48.19564629 45.78674396 55.58090548 53.15891977 62.96142578 60.53588867 C69.82402291 67.39485008 76.69964463 74.24056332 83.58131993 81.08037823 C89.50466253 86.96895855 95.41827831 92.86719176 101.32461345 98.77283031 C104.84553943 102.29296574 108.37027473 105.80906352 111.90506363 109.31528282 C115.23063003 112.61456582 118.54386912 115.9257601 121.84831619 119.24619102 C123.05730275 120.45698367 124.27050738 121.66358276 125.48838043 122.86543655 C135.36716545 132.62223627 143.03159475 141.72490982 143.3125 156.125 C143.32314832 165.9131697 140.72625995 173.08104005 134 180.2421875 C126.0439288 187.2348282 118.139278 188.48353936 107.828125 188.2734375 C93.83352498 187.27382321 84.31576183 176.62330259 74.9609375 167.19140625 C74.03584381 166.26585434 73.11075012 165.34030243 72.15762329 164.38670349 C70.21328811 162.44081705 68.27231614 160.49166119 66.33398438 158.53979492 C63.87050788 156.0593191 61.40048973 153.58548726 58.92812157 151.1138773 C56.54042569 148.72584153 54.15700279 146.33356515 51.7734375 143.94140625 C50.89722748 143.0640834 50.02101746 142.18676056 49.11825562 141.28285217 C44.74009999 136.87109676 40.5093315 132.39390013 36.45608521 127.6816864 C34.75439792 125.71634512 32.97687147 123.84767566 31.140625 122.0078125 C30.49996094 121.36585937 29.85929688 120.72390625 29.19921875 120.0625 C28.23435547 119.1034375 28.23435547 119.1034375 27.25 118.125 C26.59128906 117.46242188 25.93257812 116.79984375 25.25390625 116.1171875 C24.61839844 115.48296875 23.98289062 114.84875 23.328125 114.1953125 C22.7599707 113.62828613 22.19181641 113.06125977 21.60644531 112.47705078 C19.8602677 110.7950226 19.8602677 110.7950226 17 109 C15.40065658 112.19868683 15.85732589 115.67017118 15.86196899 119.18359375 C15.85914771 120.03987649 15.85632643 120.89615923 15.85341966 121.77838993 C15.84504727 124.66476897 15.84373313 127.55110979 15.84228516 130.4375 C15.83761871 132.50036223 15.83247543 134.56322343 15.82688904 136.62608337 C15.81559154 141.07810368 15.80716519 145.53011722 15.80076981 149.98214722 C15.7901032 157.02531436 15.76986044 164.06843324 15.74765015 171.11157227 C15.68568567 191.14320659 15.63175158 211.17483868 15.59863281 231.20654297 C15.58027317 242.26257581 15.55131713 253.31852837 15.5106281 264.37450218 C15.48957472 270.22551862 15.47410324 276.07643393 15.47182083 281.92749023 C15.46966943 287.43668673 15.45374956 292.94567296 15.42743111 298.45480537 C15.4202545 300.47274172 15.41812916 302.49070359 15.42153358 304.50864983 C15.44172573 318.75776596 15.31849817 330.14408005 5 341 C-0.76021843 346.55251825 -8.10305644 348.84182999 -16.0234375 349.09765625 C-25.77280013 348.58387236 -34.05354857 345.80393626 -41.2421875 339.06640625 C-47.55879818 331.64087948 -49.14700968 323.80979951 -49.15821838 314.35675049 C-49.16315636 313.47536903 -49.16809434 312.59398757 -49.17318195 311.68589759 C-49.18856253 308.72712374 -49.19691912 305.7683716 -49.20532227 302.80957031 C-49.21490035 300.69077869 -49.22491039 298.57198899 -49.23532104 296.45320129 C-49.26238374 290.69536956 -49.28338595 284.93752961 -49.30332303 279.17966938 C-49.32517414 273.1645031 -49.35256711 267.14936216 -49.37937927 261.13421631 C-49.42931798 249.7410467 -49.47425246 238.34786303 -49.51740164 226.9546659 C-49.56676393 213.9850329 -49.6216858 201.01542532 -49.67708123 188.0458169 C-49.79091937 161.36390165 -49.89775444 134.68196201 -50 108 C-52.08211156 109.91702896 -54.16355696 111.83477271 -56.24462891 113.75292969 C-57.12333397 114.56176102 -57.12333397 114.56176102 -58.01979065 115.38693237 C-62.22112007 119.26079683 -66.34853931 123.19400536 -70.375 127.25 C-71.20064453 128.06984375 -71.20064453 128.06984375 -72.04296875 128.90625 C-74.86516116 131.73505176 -77.56509658 134.62416281 -80.1652832 137.65869141 C-84.15686838 142.23710466 -88.37125073 146.56819865 -92.64453125 150.8828125 C-93.45435959 151.70071259 -94.26418793 152.51861267 -95.09855652 153.36129761 C-96.8022676 155.07875417 -98.50747593 156.79472664 -100.21411133 158.50927734 C-101.94549883 160.25221502 -103.67240285 161.99961803 -105.39477539 163.75146484 C-107.90567396 166.30522132 -110.42973674 168.84529274 -112.95703125 171.3828125 C-113.71466263 172.15795197 -114.47229401 172.93309143 -115.25288391 173.73171997 C-123.80796467 182.25286103 -132.90284521 188.24584566 -145.25 188.375 C-155.04852048 188.21185127 -162.06995287 185.73667383 -169.2421875 179 C-176.05498246 171.24855329 -177.37770421 163.72318615 -177.2734375 153.671875 C-176.10465205 137.9767561 -164.17398773 127.87487877 -153.67407227 117.39941406 C-152.43439967 116.15538659 -151.19514316 114.91094436 -149.95626831 113.66612244 C-146.61182189 110.30836256 -143.26107912 106.95695569 -139.90870023 103.60711765 C-137.10367913 100.80317084 -134.30165044 97.99624287 -131.49955791 95.18936992 C-124.88802798 88.56677266 -118.27121859 81.94948325 -111.65112305 75.33544922 C-104.83329932 68.52367221 -98.02472153 61.7027523 -91.22056729 54.87732339 C-85.36419814 49.00332086 -79.50201943 43.13516067 -73.63520092 37.27159476 C-70.13735124 33.77555429 -66.64174148 30.27734755 -63.15176582 26.77344513 C-59.87111707 23.48019337 -56.58325097 20.19431958 -53.28979111 16.9138813 C-52.08594802 15.71239762 -50.88463161 14.50837586 -49.68611336 13.30158043 C-36.23251338 -0.23817963 -18.75132803 -11.53803943 0 0 Z " transform="translate(273,4)" style="fill: #000000;"/><path d="M0 0 C6.91208649 5.56276574 9.53593807 12.01080353 11.68359375 20.45703125 C11.86527612 22.83124574 11.95638552 25.21361382 11.97070312 27.59472656 C11.97753616 28.27058304 11.9843692 28.94643951 11.9914093 29.64277649 C12.00491023 31.09842912 12.0140191 32.55412799 12.01911926 34.00983429 C12.02748386 36.32391881 12.04805957 38.63762273 12.07165527 40.95159912 C12.11967198 45.87001912 12.1527033 50.78847781 12.18359375 55.70703125 C12.21945048 61.39848506 12.26168652 67.08975242 12.3195343 72.78102875 C12.33935987 75.04246162 12.34787355 77.30374569 12.35583496 79.56524658 C12.45019234 92.57185501 12.94540535 105.10383556 22.68359375 114.76953125 C34.93789024 123.79135438 50.86877397 122.01222444 65.25097656 121.94287109 C67.83924552 121.94501943 70.42751353 121.94890079 73.01577759 121.95437622 C79.2903079 121.96440552 85.56462562 121.95324737 91.83912948 121.93467562 C99.1559224 121.91380473 106.4726706 121.91405068 113.78948769 121.91502078 C126.84733327 121.91601969 139.90508051 121.89775995 152.96289062 121.86865234 C165.61720571 121.84045904 178.27143432 121.826312 190.92578125 121.82763672 C191.70584405 121.82771663 192.48590685 121.82779654 193.28960791 121.82787888 C194.06835944 121.82795959 194.84711097 121.8280403 195.64946103 121.82812345 C210.08488329 121.82950476 224.52026903 121.81771678 238.95567943 121.79981702 C244.04967015 121.79379818 249.14365413 121.79165958 254.23764801 121.79075241 C261.09629184 121.78924194 267.95484341 121.77651346 274.81345749 121.75642014 C277.32849702 121.75058632 279.84354696 121.74811612 282.35859299 121.74927521 C285.79459798 121.75025939 289.23035099 121.73891817 292.6663208 121.72445679 C293.65844802 121.72755399 294.65057524 121.7306512 295.67276692 121.73384225 C305.79756866 121.66359757 314.69084703 120.06563508 322.68359375 113.45703125 C328.49646862 106.18194868 330.92296444 98.43353085 330.95483398 89.15161133 C330.96006073 88.457854 330.96528748 87.76409668 330.97067261 87.04931641 C330.98085076 85.55436758 330.98668212 84.05938393 330.988554 82.56440163 C330.99224894 80.18703199 331.0090622 77.81006803 331.02931213 75.43278503 C331.08441 68.67751671 331.11527905 61.922189 331.13989258 55.16674805 C331.15589778 51.02177772 331.18625187 46.87709499 331.22465706 42.73227501 C331.23619581 41.16526056 331.24223642 39.59819439 331.24233818 38.03113747 C331.24345907 25.35934947 331.50011068 13.11589462 340.68359375 3.45703125 C341.22113281 2.89113281 341.75867188 2.32523437 342.3125 1.7421875 C349.5943369 -5.16795471 357.53066176 -6.06383567 367.30859375 -5.83203125 C375.91890603 -5.09457395 382.80562775 -1.75289457 388.80859375 4.51953125 C394.88943916 12.13427406 396.2841592 21.07388115 396.328125 30.5546875 C396.35730263 32.09138092 396.35730263 32.09138092 396.3870697 33.65911865 C396.44344549 36.94599023 396.47128183 40.23228209 396.49609375 43.51953125 C396.52503806 45.78931539 396.554663 48.05909095 396.58496094 50.32885742 C397.48939498 127.95594836 397.48939498 127.95594836 370.68359375 157.45703125 C370.13316406 158.08867187 369.58273437 158.7203125 369.015625 159.37109375 C354.40081141 175.17674401 331.10213622 185.23999401 309.85131514 186.64417899 C306.84545901 186.71520326 303.84525372 186.72858585 300.83857727 186.71772766 C299.69707299 186.72155321 298.55556871 186.72537876 297.37947339 186.72932023 C293.58146635 186.73958059 289.78361246 186.73567129 285.9855957 186.73168945 C283.25134346 186.73494877 280.51709955 186.74116025 277.78285217 186.74717712 C271.14214253 186.75988599 264.50147339 186.7617225 257.86075363 186.75937686 C252.4578307 186.75758887 247.05491999 186.75935362 241.65199852 186.7636013 C240.49551173 186.76449409 240.49551173 186.76449409 239.31566158 186.76540491 C237.74901015 186.76661675 236.18235872 186.76783089 234.6157073 186.76904728 C219.94307648 186.77990863 205.27046868 186.77776729 190.59783658 186.77166244 C177.20420653 186.76649737 163.8106493 186.77774038 150.41703365 186.79676066 C136.63497004 186.8161811 122.8529408 186.82438752 109.07086343 186.8206374 C101.34518963 186.81873136 93.61957775 186.82115414 85.89391518 186.83535194 C79.31505364 186.84732067 72.73629212 186.84860975 66.15742908 186.83656178 C62.80749809 186.83071057 59.45789777 186.83112417 56.10795593 186.84156418 C23.52806181 186.93572781 -2.05784143 180.72905838 -26.37890625 157.83203125 C-32.08516691 152.00016108 -36.22500247 145.46854231 -40.31640625 138.45703125 C-41.05697266 137.19246094 -41.05697266 137.19246094 -41.8125 135.90234375 C-50.99271773 118.91465113 -52.63540039 100.39275941 -52.6171875 81.4765625 C-52.62108572 79.77031858 -52.62542266 78.06407562 -52.63017273 76.35783386 C-52.63758036 72.80533683 -52.63738205 69.25293931 -52.63208008 65.70043945 C-52.62626834 61.17166775 -52.64328402 56.64330276 -52.66642475 52.11459827 C-52.68122001 48.59964155 -52.68202636 45.08478178 -52.67891502 41.56979942 C-52.67942452 39.90061317 -52.68459161 38.23142096 -52.69472694 36.5622654 C-52.76240898 23.86941075 -52.09151733 12.41230911 -43.31640625 2.45703125 C-31.10611342 -7.92950199 -13.41551448 -8.93613528 0 0 Z " transform="translate(84.31640625,325.54296875)" style="fill: #000000;"/></svg>