<?xml version="1.0" encoding="UTF-8"?>
<!-- Generator: visioncortex VTracer -->
<svg id="svg" version="1.1" xmlns="http://www.w3.org/2000/svg" style="display: block;" viewBox="0 0 512 512"><path d="M0 0 C1.04462402 -0.00700928 2.08924805 -0.01401855 3.16552734 -0.02124023 C6.61062381 -0.0388121 10.05489551 -0.02719969 13.5 -0.01367188 C15.8984391 -0.016367 18.29687714 -0.0202496 20.6953125 -0.02526855 C25.71885595 -0.03116254 30.74211467 -0.02260346 35.765625 -0.00390625 C42.20189072 0.01888275 48.63748922 0.00575921 55.07373047 -0.01819611 C60.02544168 -0.03265649 64.97699495 -0.02804688 69.92871094 -0.01768494 C72.30175862 -0.01501834 74.67482068 -0.01828502 77.04785156 -0.02760315 C80.36562028 -0.03777219 83.68231145 -0.02226121 87 0 C88.46832275 -0.01214539 88.46832275 -0.01214539 89.96630859 -0.02453613 C95.61956556 0.04566575 99.12322302 0.57497506 103.5 4.51757812 C106.3412971 8.53067156 107.53683423 12.69185678 108.68302917 17.40791321 C108.88160296 18.19622739 109.08017675 18.98454156 109.28476793 19.79674405 C109.946627 22.43267157 110.59668736 25.07136445 111.24682617 27.71020508 C111.71946143 29.60272101 112.19282249 31.49505581 112.66685486 33.38722229 C113.9508785 38.52130807 115.224728 43.65787008 116.49677825 48.79493356 C117.82817013 54.16425227 119.1688875 59.53124115 120.50862122 64.89848328 C123.04382644 75.06106299 125.57062704 85.22571287 128.09442168 95.39113158 C130.96822873 106.96459433 133.85138698 118.53572076 136.73533666 130.10665953 C142.66730664 153.90771237 148.58751561 177.71167794 154.5 201.51757812 C157.77696923 201.51757812 159.2360679 199.17794196 161.56396484 196.98217773 C162.07786774 196.49908646 162.59177063 196.01599518 163.12124634 195.51826477 C167.8623573 191.04377167 172.54527272 186.50741269 177.21138573 181.95488644 C180.34654463 178.8964113 183.49720526 175.85919743 186.69482422 172.8659668 C189.7871676 169.97067109 192.82984173 167.03081537 195.84392166 164.05420113 C196.9976451 162.93043753 198.16766632 161.82314819 199.35386276 160.73371696 C203.10544253 157.2738562 206.22146264 154.12335756 208.5 149.51757812 C208.26356074 145.08057723 207.40356619 142.13378801 205.80142212 138.00050354 C202.40580048 128.91298557 204.25311986 118.43730922 207.5 109.51757812 C213.60329546 96.5884787 222.97634994 87.81575497 236.1875 82.41992188 C249.67657071 78.10422217 263.63471594 79.91473566 276.125 86.14257812 C286.67502259 92.25286225 294.1074301 101.57489171 298.375 112.95507812 C301.72953155 125.78717169 300.52317526 139.74570141 294.5 151.51757812 C287.1457656 163.56173372 276.81176737 170.25845955 263.75 174.83007812 C254.43669987 176.81895536 244.72036828 176.16977914 235.76953125 173.07617188 C233.16373603 172.43481436 232.01655589 172.66525938 229.5 173.51757812 C227.24626034 175.43027199 225.14950996 177.35515456 223.04736328 179.42333984 C222.4095845 180.03979874 221.77180573 180.65625763 221.11470032 181.29139709 C219.00754921 183.33432115 216.91271747 185.38924575 214.8203125 187.44726562 C214.10436794 188.14973545 213.38842339 188.85220528 212.65078354 189.57596207 C208.86372422 193.29461272 205.08695047 197.02338929 201.31738281 200.75976562 C197.42307755 204.61527105 193.49285433 208.43189197 189.55333138 212.24110222 C186.52916812 215.1793015 183.53420226 218.14599018 180.54632187 221.12103653 C179.10988025 222.54102552 177.66244568 223.94998384 176.20401382 225.34737778 C174.16290197 227.30809408 172.16681328 229.30601111 170.17626953 231.31787109 C169.56756516 231.88455002 168.95886078 232.45122894 168.33171082 233.03507996 C165.99339708 235.46983839 164.54614404 237.24225204 164.42140388 240.68981266 C164.91238747 243.70587697 165.68500397 246.5713693 166.5 249.51757812 C166.85616825 250.96654482 167.20688785 252.41685715 167.55338097 253.86816788 C168.85564465 259.29014722 170.22435682 264.6946241 171.59228516 270.1003418 C172.11507559 272.17754338 172.63752221 274.25483153 173.15965271 276.3321991 C174.28014123 280.78782338 175.4027169 285.24291465 176.52684402 289.6976223 C178.30457814 296.74390425 180.07557809 303.79186787 181.8453064 310.84016418 C186.87704505 330.87628047 191.91552958 350.91069019 196.96582031 370.94213867 C199.75837787 382.01876728 202.5441958 393.09706839 205.32259405 404.17725736 C207.07960063 411.18256082 208.84488953 418.18570761 210.61630654 425.18738019 C211.71599359 429.54236527 212.80777174 433.89930388 213.89731026 438.25683784 C214.40356143 440.27485658 214.91304575 442.29206744 215.42601967 444.30838776 C216.12655122 447.06389101 216.81535073 449.82207704 217.50137329 452.58122253 C217.80865732 453.77233502 217.80865732 453.77233502 218.12214911 454.98751038 C219.61254756 461.06351965 220.51371587 466.74319785 218.3125 472.76757812 C215.96100791 476.33535923 213.31557843 478.60978891 209.5 480.51757812 C206.65570643 480.60448813 203.83620824 480.63311614 200.9921875 480.61523438 C200.15156769 480.61381943 199.31094788 480.61240448 198.44485474 480.61094666 C195.75486725 480.6053405 193.06496241 480.59278699 190.375 480.58007812 C188.55338662 480.57506392 186.73177193 480.57050087 184.91015625 480.56640625 C180.44007223 480.55536907 175.97005014 480.53810032 171.5 480.51757812 C171.5220752 481.13890625 171.54415039 481.76023437 171.56689453 482.40039062 C171.65155891 484.93920065 171.70006163 487.47785553 171.75 490.01757812 C171.78351563 490.90445312 171.81703125 491.79132813 171.8515625 492.70507812 C171.94194324 498.85096817 171.01631543 503.39958217 167.5 508.51757812 C163.86420505 512.06469515 160.93370215 512.80336039 156 513.01757812 C151.0792349 512.81727561 148.19989473 511.94674885 144.5 508.51757812 C140.5 502.51757812 140.5 502.51757812 140.5 480.51757812 C76.48 480.51757812 12.46 480.51757812 -53.5 480.51757812 C-53.5 487.44757813 -53.5 494.37757813 -53.5 501.51757812 C-58.48245614 510.23687637 -58.48245614 510.23687637 -63.5 512.51757812 C-68.88209263 513.29561536 -73.09901717 513.21806954 -78 510.76757812 C-81.25983476 507.83372684 -83.11095276 505.68471983 -84.5 501.51757812 C-84.58143855 499.89038331 -84.6075302 498.26006093 -84.59765625 496.63085938 C-84.59443359 495.69306641 -84.59121094 494.75527344 -84.58789062 493.7890625 C-84.57532227 492.32436523 -84.57532227 492.32436523 -84.5625 490.83007812 C-84.55798828 489.84201172 -84.55347656 488.85394531 -84.54882812 487.8359375 C-84.53704303 485.39642339 -84.52059011 482.95703123 -84.5 480.51757812 C-85.61971191 480.53852539 -86.73942383 480.55947266 -87.89306641 480.58105469 C-92.06383377 480.65368239 -96.23454568 480.69946023 -100.40576172 480.73730469 C-102.20794081 480.75736845 -104.01005521 480.78462625 -105.81201172 480.81933594 C-108.40869136 480.86808641 -111.00450729 480.89059894 -113.6015625 480.90820312 C-114.80191635 480.93917084 -114.80191635 480.93917084 -116.02651978 480.97076416 C-121.3379909 480.97287471 -124.26771392 480.00449079 -128.5 476.51757812 C-132.58670246 472.10824126 -132.91304358 468.69688475 -132.81428862 462.96641779 C-132.14002655 455.56741688 -130.09925212 448.41813006 -128.27496338 441.23406982 C-127.81474065 439.38192646 -127.35564778 437.52950204 -126.89758277 435.67682385 C-125.63994632 430.60433476 -124.36625801 425.53599609 -123.08982134 420.46821022 C-121.71436352 414.99542059 -120.35384008 409.5189176 -118.99139404 404.0428772 C-116.32189407 393.32369522 -113.63849148 382.60804065 -110.95016888 371.89356562 C-108.76583385 363.18654346 -106.586734 354.47822658 -104.41136932 345.76895905 C-104.10168376 344.52910866 -103.79199819 343.28925827 -103.47292821 342.01183666 C-102.84383247 339.49308132 -102.21475145 336.9743223 -101.58568498 334.45555964 C-95.85617054 311.51708432 -90.11241044 288.5822029 -84.36240847 265.64885664 C-79.11456853 244.71798225 -73.87873966 223.78413903 -68.65332031 202.84765625 C-67.3147623 197.48455872 -65.97618874 192.12146507 -64.6374855 186.75840378 C-64.47266942 186.09812344 -64.30785334 185.43784311 -64.13804282 184.75755428 C-59.76893291 167.25500845 -55.38996446 149.75493092 -51.00804496 132.25558782 C-50.379989 129.74737132 -49.75193857 127.23915343 -49.12389374 124.73093414 C-48.81487624 123.49684259 -48.50585874 122.26275104 -48.18747707 120.99126278 C-46.00952261 112.2915242 -43.836314 103.59060808 -41.66486359 94.88924408 C-39.01924729 84.28852125 -36.36600144 73.68974278 -33.70298889 63.09337613 C-32.34430356 57.68628006 -30.98901657 52.27839244 -29.64286804 46.86816025 C-28.41074841 41.91664871 -27.16889262 36.96768664 -25.91918918 32.02058473 C-25.46859656 30.22966529 -25.02157479 28.43784289 -24.57847312 26.64505538 C-23.97582658 24.20905511 -23.36024174 21.7766807 -22.74133682 19.34476852 C-22.57215819 18.64755518 -22.40297955 17.95034184 -22.22867429 17.23200083 C-20.68726583 11.27588739 -18.4663478 6.34094742 -13.90625 2.11242676 C-9.19179505 -0.09493971 -5.14650728 -0.04256988 0 0 Z M7.5 30.51757812 C3.2691701 45.72700767 3.2691701 45.72700767 -0.68281555 61.00160217 C-0.96476924 62.1270025 -1.24672292 63.25240282 -1.53722066 64.41190618 C-2.46363808 68.11202493 -3.38674442 71.81296091 -4.30981445 75.51391602 C-4.98003496 78.19483235 -5.65096264 80.87557158 -6.32185364 83.55632019 C-7.94272237 90.0347964 -9.56111043 96.51388974 -11.17861281 102.99320716 C-13.06369557 110.5439914 -14.95127096 118.09415185 -16.83892741 125.644293 C-20.20453134 139.10621006 -23.5678738 152.56869107 -26.92993164 166.03149414 C-30.19221241 179.09474908 -33.45616234 192.15758549 -36.72192383 205.2199707 C-36.92372591 206.02713907 -37.12552799 206.83430745 -37.33344529 207.66593546 C-37.53490146 208.47171978 -37.73635763 209.2775041 -37.94391853 210.10770613 C-41.66769148 225.00210919 -45.38991956 239.89689794 -49.11142087 254.79186874 C-50.42709357 260.05757848 -51.74322698 265.32317295 -53.05950356 270.58873177 C-54.65967047 276.99007973 -56.25895248 283.39164803 -57.85711179 289.79349751 C-58.67274193 293.06064872 -59.48887314 296.32767256 -60.30576324 299.59450912 C-61.18896452 303.12682746 -62.07072981 306.65950107 -62.95210266 310.192276 C-63.21327655 311.23542294 -63.47445043 312.27856988 -63.74353868 313.35332733 C-63.97732608 314.2917014 -64.21111349 315.23007547 -64.45198536 316.19688511 C-64.7577716 317.42108672 -64.7577716 317.42108672 -65.06973535 318.67001969 C-65.53780225 320.3637349 -65.53780225 320.3637349 -65.5 321.51757812 C-34.81 321.51757812 -4.12 321.51757812 27.5 321.51757812 C27.51458252 314.64743896 27.52916504 307.7772998 27.54418945 300.69897461 C27.59295743 278.71176639 27.65636946 256.7246198 27.72898628 234.73747781 C27.74025431 231.32164898 27.75139278 227.90581974 27.76245117 224.48999023 C27.76465486 223.80996624 27.76685854 223.12994224 27.769129 222.42931146 C27.8044918 211.42155775 27.82936167 200.41380411 27.85034702 189.40601467 C27.87211719 178.10920288 27.90540135 166.81246459 27.94870156 155.51571137 C27.97265511 149.17124811 27.99136997 142.82686639 27.99761391 136.48235893 C28.00365502 130.51109767 28.02362 124.54004508 28.05427551 118.56886101 C28.06307129 116.37712553 28.06677514 114.1853628 28.06500816 111.99361038 C28.063357 109.00053918 28.08004186 106.00810527 28.10127258 103.01512146 C28.09642501 102.14837514 28.09157743 101.28162882 28.08658296 100.38861746 C28.1493554 95.02411396 28.9558413 91.27040979 31.5 86.51757812 C36.12118659 82.23452714 39.03930061 81.20801634 45.18359375 81.30664062 C48.57859741 81.61579779 50.71119878 82.57190285 53.5 84.51757812 C57.59873856 89.46207134 58.07888283 93.03148582 58.01898193 99.17355347 C58.02648319 100.03214246 58.03398444 100.89073145 58.041713 101.77533829 C58.06197301 104.64523179 58.05389081 107.51433396 58.04589844 110.38427734 C58.05463436 112.44425741 58.0651202 114.5042307 58.07722473 116.56419373 C58.10510287 122.1525571 58.108489 127.74069925 58.10750484 133.32912207 C58.11063236 139.17081001 58.13624725 145.01239809 58.15948486 150.85403442 C58.20006064 161.91423986 58.22038932 172.97438632 58.23345876 184.03465474 C58.24932342 196.62711029 58.28773684 209.21946539 58.32805204 221.81186271 C58.41047263 247.71373414 58.46455129 273.61560283 58.5 299.51757812 C59.60003609 298.58220305 60.69898237 297.64554625 61.79748535 296.70837116 C62.71562893 295.9261826 62.71562893 295.9261826 63.65232086 295.12819225 C66.56731858 292.58720102 69.33061306 289.89998497 72.09375 287.19604492 C72.71085342 286.59515045 73.32795685 285.99425598 73.96376038 285.37515259 C79.58840574 279.88955708 85.18338832 274.37359509 90.76927185 268.84855938 C94.5133772 265.14558902 98.26669574 261.45313046 102.04345703 257.78344727 C105.71110732 254.21938895 109.35373291 250.631468 112.97998047 247.02530861 C114.36212087 245.65910186 115.75288782 244.30156454 117.15234375 242.9531002 C119.10614719 241.06721794 121.02619248 239.15224714 122.94140625 237.22729492 C123.52310074 236.67998215 124.10479523 236.13266937 124.70411682 235.56877136 C127.66415919 232.52257363 127.66415919 232.52257363 128.56519365 228.50176877 C127.84149408 223.3571858 126.88550758 218.3522348 125.60217285 213.31826782 C125.41009703 212.54498685 125.21802121 211.77170588 125.02012491 210.97499216 C124.38161236 208.41045037 123.73477682 205.84808579 123.08789062 203.28564453 C122.62581541 201.43711677 122.16425573 199.58846007 121.70317078 197.73968506 C120.45438052 192.73883487 119.19832627 187.7398352 117.94087029 182.74115801 C116.62531764 177.50655178 115.31627458 172.27031803 114.00646973 167.03427124 C111.8078346 158.24892234 109.60489496 149.46466242 107.39892578 140.68115234 C104.28579708 128.28555157 101.18082585 115.88791787 98.07729435 103.48991132 C95.92788791 94.90473142 93.77654469 86.3200367 91.62483025 77.73543501 C91.10287683 75.65298509 90.5809769 73.57052176 90.05912971 71.48804522 C88.57277331 65.55690717 87.08521272 59.62607385 85.59568214 53.69573212 C85.1441844 51.89747126 84.69307996 50.09911161 84.24239159 48.30064774 C83.6286328 45.85181721 83.01343029 43.403354 82.39782715 40.95498657 C82.21854754 40.23836589 82.03926793 39.52174522 81.85455561 38.78340876 C81.15078742 35.98996794 80.4114446 33.25191194 79.5 30.51757812 C55.74 30.51757812 31.98 30.51757812 7.5 30.51757812 Z M239.5 116.51757812 C236.01857071 121.20524912 234.74128321 125.66462003 235.5 131.51757812 C237.38590631 136.95342571 240.8679768 140.28568921 245.5 143.51757812 C250.05774994 145.0368281 254.180209 145.45304538 258.66015625 143.64648438 C263.43404919 140.92491924 266.81127599 137.83865188 268.5 132.51757812 C269.36038503 126.85090432 268.78344277 122.33329419 265.5 117.51757812 C261.55486439 113.54010534 257.95824016 111.4023821 252.3125 111.14257812 C247.00878695 111.22895782 243.36550137 112.90512312 239.5 116.51757812 Z M132.76078796 268.99684143 C132.00013786 269.76592079 132.00013786 269.76592079 131.22412109 270.55053711 C130.68738266 271.0853772 130.15064423 271.62021729 129.59764099 272.17126465 C127.81797761 273.94721169 126.04563583 275.73027782 124.2734375 277.51367188 C123.04354674 278.74475397 121.81328694 279.97546749 120.58267212 281.20582581 C118.0022005 283.78786373 115.42513106 286.37323463 112.85058594 288.96118164 C109.54210621 292.28666029 106.22707269 295.60550907 102.90970421 298.92211819 C100.36847891 301.46361475 97.82986338 304.00770427 95.29213333 306.55269051 C94.07025226 307.77776477 92.84775483 309.00222459 91.62464523 310.22607231 C89.91958871 311.93328503 88.21785947 313.64374256 86.51708984 315.35522461 C86.00594131 315.86591995 85.49479279 316.3766153 84.96815491 316.90278625 C82.55582418 318.87290499 82.55582418 318.87290499 81.5 321.51757812 C104.6 321.51757812 127.7 321.51757812 151.5 321.51757812 C150.66619956 314.75158233 150.66619956 314.75158233 149.28491211 308.203125 C149.04473862 307.24273315 148.80456512 306.28234131 148.55711365 305.29284668 C148.29978958 304.28419556 148.04246552 303.27554443 147.77734375 302.23632812 C147.51240616 301.18223755 147.24746857 300.12814697 146.97450256 299.04211426 C146.13327478 295.69946429 145.28549209 292.35851774 144.4375 289.01757812 C143.8634975 286.74164607 143.28992523 284.46560547 142.71679688 282.18945312 C141.31617453 276.6308955 139.91017708 271.07371898 138.5 265.51757812 C135.65705986 265.51757812 134.69184075 267.08318778 132.76078796 268.99684143 Z M-73.5 352.51757812 C-76.63058786 365.01680876 -79.75992204 377.51635252 -82.88763428 390.01630306 C-84.33983153 395.81986269 -85.79246842 401.62331155 -87.24609375 407.42651367 C-88.64762942 413.02182953 -90.04803156 418.61742795 -91.44763184 424.21322823 C-91.98310572 426.35326914 -92.51899528 428.49320608 -93.05529785 430.63303947 C-93.803575 433.61894038 -94.55040324 436.60520005 -95.296875 439.59155273 C-95.52129272 440.48562836 -95.74571045 441.37970398 -95.97692871 442.3008728 C-97.03324633 445.8691597 -97.03324633 445.8691597 -97.5 449.51757812 C-4.77 449.51757812 87.96 449.51757812 183.5 449.51757812 C182.77059654 443.26635243 182.77059654 443.26635243 181.55126953 437.22145081 C181.27370819 436.09645424 181.27370819 436.09645424 180.99053955 434.94873047 C180.78998962 434.15619873 180.5894397 433.36366699 180.3828125 432.54711914 C180.16969421 431.68924301 179.95657593 430.83136688 179.73699951 429.94749451 C179.03764106 427.13764291 178.33152372 424.3295421 177.625 421.52148438 C177.13527004 419.56240947 176.64585418 417.60325602 176.15673828 415.64402771 C175.13417062 411.55237649 174.10834042 407.46156162 173.08007812 403.37133789 C171.75957156 398.11781839 170.44646234 392.86248361 169.13565063 387.60653782 C168.12775228 383.5680091 167.11640258 379.53035116 166.10394287 375.49296379 C165.61812856 373.5542332 165.13330524 371.61525401 164.6494751 369.6760273 C163.97549898 366.97722871 163.29699433 364.27961025 162.6171875 361.58227539 C162.41663757 360.77557404 162.21608765 359.96887268 162.00946045 359.13772583 C161.34161251 355.53311596 161.34161251 355.53311596 159.5 352.51757812 C156.50384458 352.41957688 153.53073016 352.38766473 150.53416443 352.39732361 C149.5818423 352.39646918 148.62952018 352.39561476 147.64833981 352.39473444 C144.43147546 352.39307673 141.21466234 352.39860575 137.99780273 352.40405273 C135.70211793 352.40433457 133.40643304 352.40417694 131.11074829 352.40361023 C124.85686689 352.40332211 118.60300449 352.40922113 112.34912753 352.41618419 C105.82146217 352.42241536 99.29379642 352.42302134 92.76612854 352.42420959 C81.80282246 352.42696932 70.83952344 352.43322489 59.8762207 352.44213867 C48.58195023 352.45131203 37.28768165 352.45839323 25.9934082 352.46264648 C25.29770096 352.46290921 24.60199371 352.46317193 23.88520443 352.46344262 C20.39518647 352.46474762 16.9051685 352.46601133 13.41515052 352.46725452 C-15.55657095 352.47762805 -44.52828531 352.49532129 -73.5 352.51757812 Z " transform="translate(172.5,-0.517578125)" style="fill: #000000;"/></svg>