<?xml version="1.0" encoding="UTF-8"?>
<!-- Generator: visioncortex VTracer -->
<svg id="svg" version="1.1" xmlns="http://www.w3.org/2000/svg" style="display: block;" viewBox="0 0 512 512"><path d="M0 0 C7.39122153 4.32316731 13.35775355 10.83220442 19.38482666 16.84919739 C20.15654764 17.61583055 20.92826862 18.38246371 21.72337508 19.17232817 C24.28961584 21.72296482 26.8523541 24.27708998 29.41503906 26.83129883 C31.26175513 28.66846731 33.10864274 30.50546338 34.95568848 32.34230042 C40.47924676 37.83673804 45.99790561 43.33608304 51.51539481 48.8366144 C53.0752803 50.39169531 54.63525435 51.94668734 56.1952467 53.50166106 C65.89949219 63.17495182 75.60159128 72.85039212 85.2987709 82.53076649 C87.53866914 84.76671587 89.77859448 87.00263809 92.01855469 89.23852539 C92.85354817 90.07200633 92.85354817 90.07200633 93.70541021 90.92232528 C102.73278834 99.9326788 111.77215686 108.93090521 120.81638959 117.92433731 C130.11657627 127.1727162 139.40536868 136.43241897 148.68331313 145.70311183 C153.88705129 150.90219466 159.09568991 156.09615213 164.31726837 161.27732277 C169.22618879 166.14829758 174.11960945 171.03438259 179.00294495 175.93100548 C180.79562837 177.72363494 182.59344419 179.51114899 184.39676666 181.29307556 C186.86135992 183.72998414 189.30665157 186.18479416 191.74810791 188.64485168 C192.46249787 189.34244671 193.17688782 190.04004174 193.91292596 190.75877601 C199.92070485 196.88127543 203.88746362 204.16311208 203.875 212.9375 C203.89691406 213.845 203.91882813 214.7525 203.94140625 215.6875 C202.1927798 224.72388014 196.78215752 231.1980499 190.38661194 237.48484802 C189.59436405 238.28348473 188.80211616 239.08212144 187.98586076 239.90495926 C185.34612772 242.55986999 182.68901237 245.19664153 180.03149414 247.83374023 C178.12812512 249.74061249 176.22576125 251.64844131 174.3245697 253.55747986 C169.70608801 258.19044087 165.07440805 262.80998312 160.43796975 267.42496657 C155.03562931 272.80322811 149.64624689 278.19439791 144.25723415 283.58600808 C134.64156748 293.20535955 125.01372179 302.81242845 115.37915039 312.4128418 C106.03510533 321.72377125 96.70060368 331.04413552 87.3762207 340.37475586 C77.21210538 350.54563685 67.04339753 360.7118799 56.8660726 370.86954457 C56.32785762 371.40672005 55.78964265 371.94389554 55.23511813 372.49734907 C54.15423762 373.57613875 53.07334705 374.65491835 51.99244629 375.73368774 C48.23322444 379.48601936 44.4771169 383.24145128 40.72206306 386.99795341 C36.14706792 391.57438893 31.56654466 396.14520788 26.97900278 400.70906734 C24.63933948 403.03688103 22.30290615 405.36777673 19.97127151 407.70363617 C17.44283755 410.23577745 14.90538249 412.75851688 12.3653717 415.27903748 C11.63141538 416.01832172 10.89745906 416.75760597 10.14126164 417.51929277 C4.17426594 423.40735529 -0.43160514 426.36610217 -9.0625 426.375 C-15.10050453 426.22715464 -19.98923395 425.9566328 -24.6875 421.9375 C-28.9584391 417.26204464 -31.81572789 413.18677859 -31.80775452 406.704422 C-31.80981651 405.41087044 -31.80981651 405.41087044 -31.81192017 404.09118652 C-31.80832489 403.14819702 -31.80472961 402.20520752 -31.80102539 401.23364258 C-31.80117142 400.2383403 -31.80131744 399.24303802 -31.8014679 398.21757507 C-31.80077032 394.92237175 -31.79298511 391.62722471 -31.78515625 388.33203125 C-31.78329152 386.04945405 -31.78186788 383.76687645 -31.78086853 381.48429871 C-31.77704767 375.47224831 -31.76722104 369.46022202 -31.75616455 363.44818115 C-31.74594118 357.31506679 -31.74136892 351.18194855 -31.73632812 345.04882812 C-31.72559841 333.01170815 -31.70852714 320.97460608 -31.6875 308.9375 C-37.28634285 309.05238145 -42.88501283 309.17331696 -48.48361206 309.29951477 C-50.38246232 309.34150535 -52.28134795 309.3819306 -54.18026733 309.42066956 C-108.66639931 310.53788742 -156.76006802 327.75184148 -195.26171875 367.26171875 C-200.07240962 372.56819741 -204.43438688 378.17881895 -208.6875 383.9375 C-209.10499512 384.49469727 -209.52249023 385.05189453 -209.95263672 385.62597656 C-223.96980204 404.56388418 -233.33408987 427.24916361 -238.97265625 450.03125 C-239.17963135 450.84730713 -239.38660645 451.66336426 -239.59985352 452.50415039 C-239.97637533 454.02322116 -240.32940331 455.54842555 -240.65209961 457.07983398 C-241.85847768 462.03912861 -243.88587899 464.59789606 -247.79858398 467.84741211 C-251.31391931 469.87610181 -254.80083561 469.77136618 -258.6875 468.9375 C-262.76872419 466.85978587 -265.0222192 465.18460091 -266.6875 460.9375 C-266.94197559 458.51053143 -266.94197559 458.51053143 -266.94819641 455.75187683 C-266.95528122 454.70260513 -266.96236603 453.65333344 -266.96966553 452.57226562 C-266.96718811 451.42588623 -266.96471069 450.27950684 -266.9621582 449.09838867 C-266.96726913 447.88629227 -266.97238007 446.67419586 -266.97764587 445.42536926 C-266.9891756 442.09763954 -266.99161176 438.77015882 -266.98908257 435.44242644 C-266.98800975 432.64839027 -266.99290609 429.85437677 -266.997688 427.06034547 C-267.00879415 420.44410299 -267.00921959 413.82791722 -267.00317383 407.21166992 C-266.99718313 400.44436639 -267.00931603 393.67727336 -267.0307439 386.91000575 C-267.04855374 381.06501471 -267.0543298 375.22008936 -267.05110615 369.3750723 C-267.0493177 365.90069301 -267.05167518 362.42646253 -267.06582069 358.95210838 C-267.28305254 291.50202396 -243.85768908 230.24610422 -196.125 182.125 C-190.61448832 176.66729434 -184.84901898 171.65555737 -178.6875 166.9375 C-178.14432129 166.51791016 -177.60114258 166.09832031 -177.04150391 165.66601562 C-137.43243015 135.22313705 -87.73333099 115.776573 -37.38427734 115.92114258 C-36.31430511 115.92350418 -35.24433289 115.92586578 -34.14193726 115.92829895 C-32.92699081 115.93285347 -32.92699081 115.93285347 -31.6875 115.9375 C-31.69638245 114.6899292 -31.70526489 113.4423584 -31.7144165 112.15698242 C-31.79558418 100.38660921 -31.85550486 88.61629295 -31.89474869 76.84570312 C-31.91560277 70.79464024 -31.94388118 64.74380372 -31.98925781 58.69287109 C-32.03279242 52.85085837 -32.0566535 47.00906308 -32.06700897 41.16690063 C-32.0743866 38.94060851 -32.0887934 36.71432797 -32.11042023 34.48812866 C-32.13955473 31.36422219 -32.14345171 28.24120847 -32.14160156 25.1171875 C-32.15598267 24.20152512 -32.17036377 23.28586273 -32.18518066 22.342453 C-32.13696995 14.79495946 -30.24993261 9.49993261 -24.875 4.125 C-16.8683106 -1.36978684 -9.34373632 -2.69226301 0 0 Z " transform="translate(287.6875,22.0625)" style="fill: #000000;"/></svg>