<?xml version="1.0" encoding="UTF-8"?>
<!-- Generator: visioncortex VTracer -->
<svg id="svg" version="1.1" xmlns="http://www.w3.org/2000/svg" style="display: block;" viewBox="0 0 512 512"><path d="M0 0 C3.32832776 11.69638239 6.38819092 23.41998514 9.15234375 35.26171875 C9.53315587 36.88179855 9.91420528 38.50182259 10.29547119 40.12179565 C11.30636193 44.42252901 12.31204182 48.72446355 13.31615829 53.02678299 C13.94115811 55.70316481 14.56762354 58.37919974 15.19448853 61.05514526 C23.06081849 94.64535125 30.63323187 128.29688961 38 162 C33.72309849 163.42563384 30.97224638 161.55870927 27.05078125 159.81640625 C26.27816452 159.48205063 25.50554779 159.14769501 24.70951843 158.8032074 C22.23982114 157.73195905 19.77621118 156.64743483 17.3125 155.5625 C15.64035733 154.83440537 13.96783557 154.10718069 12.29492188 153.38085938 C8.19214567 151.59730887 4.0947796 149.80182936 0 148 C-0.28344269 148.55001678 -0.56688538 149.10003357 -0.85891724 149.66671753 C-12.4411255 172.11979574 -25.20578464 193.02405878 -42 212 C-42.77085937 212.88171875 -43.54171875 213.7634375 -44.3359375 214.671875 C-52.87236682 224.31654252 -61.85664032 233.05526748 -72 241 C-72.5465625 241.42877441 -73.093125 241.85754883 -73.65625 242.29931641 C-89.88362069 255 -89.88362069 255 -93 255 C-93 255.66 -93 256.32 -93 257 C-92.32710938 257.22042969 -91.65421875 257.44085938 -90.9609375 257.66796875 C-87.10141254 259.40424581 -83.98000957 261.75496263 -80.625 264.3125 C-79.57542114 265.10829468 -79.57542114 265.10829468 -78.50463867 265.92016602 C-62.39081879 278.27487925 -47.48181794 291.9423099 -35 308 C-33.81857422 309.47339844 -33.81857422 309.47339844 -32.61328125 310.9765625 C-19.79679294 327.08205868 -10.23231292 344.64820616 -1 363 C2.92894789 363 5.88146931 361.46698597 9.40625 359.90234375 C10.88662269 359.25954436 12.36709449 358.61697316 13.84765625 357.97460938 C16.17979146 356.9552541 18.51051374 355.93286417 20.83935547 354.90600586 C23.08728936 353.91728509 25.34008961 352.9404259 27.59375 351.96484375 C28.2906897 351.65344955 28.98762939 351.34205536 29.70568848 351.02122498 C34.66019446 348.88673149 34.66019446 348.88673149 38 350 C29.22104442 389.38675466 20.38628529 428.75897504 11.1150322 468.03323364 C10.5644438 470.3667617 10.01502983 472.70056372 9.46585083 475.03442383 C8.60159843 478.70541561 7.73374456 482.37553731 6.86283875 486.04495621 C6.39757846 488.00718759 5.93476098 489.96999769 5.4720459 491.93283081 C3.85941857 498.69548934 2.09786245 505.37091428 0 512 C-6.09717846 510.47321063 -10.70760401 507.06967691 -15.8125 503.5625 C-17.69858001 502.28551443 -19.58530712 501.00948412 -21.47265625 499.734375 C-22.4073877 499.10080078 -23.34211914 498.46722656 -24.30517578 497.81445312 C-28.08980999 495.26621962 -31.9132865 492.78138105 -35.75 490.3125 C-36.4406958 489.86745117 -37.1313916 489.42240234 -37.84301758 488.96386719 C-39.21995233 488.07706623 -40.59714628 487.19066757 -41.97460938 486.3046875 C-43.96990949 485.01938328 -45.96209377 483.72940552 -47.953125 482.4375 C-73.02957389 466.16740685 -98.28054609 450.17742346 -123.63671875 434.34765625 C-124.54728027 433.7767627 -125.4578418 433.20586914 -126.39599609 432.61767578 C-128.08251121 431.56996819 -129.77774092 430.53610851 -131.48291016 429.51904297 C-133.3529822 428.39617864 -135.1820828 427.20547534 -137 426 C-137 425.34 -137 424.68 -137 424 C-133.25165446 422.26723134 -129.50101766 420.53947563 -125.75 418.8125 C-124.70585937 418.32974609 -123.66171875 417.84699219 -122.5859375 417.34960938 C-115.4544308 414.06999672 -108.26626707 410.96893348 -101 408 C-101 404.05812585 -102.77618375 401.8056803 -104.875 398.625 C-105.27992676 398.0057666 -105.68485352 397.3865332 -106.10205078 396.74853516 C-113.46227167 385.64468063 -121.82283116 375.63672357 -131 366 C-131.65355469 365.29359375 -132.30710937 364.5871875 -132.98046875 363.859375 C-160.86264802 334.6098394 -205.72495757 312.75762742 -246.12136352 310.90258491 C-248.55519531 310.85834787 -250.98738098 310.84455349 -253.4216156 310.84178162 C-254.81491131 310.83437465 -254.81491131 310.83437465 -256.23635441 310.82681805 C-259.33782504 310.81150312 -262.43927506 310.80309874 -265.54077148 310.79467773 C-267.7683785 310.78509449 -269.99598371 310.77508415 -272.22358704 310.76467896 C-278.26429064 310.73767223 -284.30500202 310.71663975 -290.34573245 310.69667697 C-296.66117182 310.67479131 -302.97658734 310.64741524 -309.29200745 310.62062073 C-319.88989216 310.57639679 -330.48778573 310.53555569 -341.08569336 310.49731445 C-351.99944007 310.45792427 -362.91317582 310.41647853 -373.8269043 310.37231445 C-374.506984 310.36956495 -375.1870637 310.36681544 -375.88775188 310.36398262 C-381.8038772 310.34004642 -387.72000189 310.31595493 -393.63612652 310.29184818 C-419.09072985 310.18832815 -444.54536016 310.09500263 -470 310 C-470 274.36 -470 238.72 -470 202 C-453.94085938 201.97421875 -437.88171875 201.9484375 -421.3359375 201.921875 C-411.1367067 201.89669624 -400.93749456 201.87051693 -390.73828125 201.83984375 C-385.37581458 201.82377792 -380.01334744 201.80791217 -374.65087891 201.79248047 C-373.64294366 201.78956456 -373.64294366 201.78956456 -372.61464608 201.78658974 C-361.81288203 201.75569776 -351.01113915 201.73863068 -340.20933931 201.72680578 C-329.09663041 201.71432768 -317.9840349 201.68638653 -306.87139475 201.64538693 C-300.64100586 201.62287784 -294.41077297 201.60708295 -288.18033981 201.60811615 C-282.29844744 201.60886904 -276.41689856 201.59066887 -270.53509521 201.55883217 C-268.39320064 201.55041559 -266.25126716 201.54852604 -264.10936356 201.55419731 C-215.67898369 201.66520302 -170.53968612 182.59958481 -135 150 C-134.48630859 149.53158691 -133.97261719 149.06317383 -133.44335938 148.58056641 C-119.81485811 135.99738343 -109.45532981 120.85848769 -100 105 C-108.81508099 100.38299597 -117.93156928 96.63838334 -127.15820312 92.9296875 C-128.28291016 92.465625 -129.40761719 92.0015625 -130.56640625 91.5234375 C-131.58677979 91.11013184 -132.60715332 90.69682617 -133.65844727 90.27099609 C-136 89 -136 89 -137 86 C-136.37246826 85.60844727 -135.74493652 85.21689453 -135.09838867 84.81347656 C-122.13285989 76.72168285 -109.18205584 68.60787769 -96.26806641 60.43408203 C-94.00703156 59.004446 -91.74407564 57.5779033 -89.48046875 56.15234375 C-68.53192771 42.95532152 -47.71796951 29.55577675 -27 16 C-22.73007093 13.2069472 -18.45905034 10.4155725 -14.1875 7.625 C-13.1960498 6.97587646 -12.20459961 6.32675293 -11.18310547 5.65795898 C-10.27061035 5.06184814 -9.35811523 4.4657373 -8.41796875 3.8515625 C-7.20790161 3.05999756 -7.20790161 3.05999756 -5.97338867 2.25244141 C-2.42436647 0 -2.42436647 0 0 0 Z " transform="translate(472,0)" style="fill: #000000;"/></svg>