<?xml version="1.0" encoding="UTF-8"?>
<!-- Generator: visioncortex VTracer -->
<svg id="svg" version="1.1" xmlns="http://www.w3.org/2000/svg" style="display: block;" viewBox="0 0 512 512"><path d="M0 0 C3.7838068 1.7657765 5.56887166 3.08713097 7 7 C7.18055763 9.72666988 7.25277412 12.34824395 7.22705078 15.07324219 C7.22734283 15.88337265 7.22763489 16.69350311 7.22793579 17.52818298 C7.22654443 20.20118994 7.21099238 22.87391684 7.1953125 25.546875 C7.19158168 27.40203703 7.18873503 29.25720102 7.18673706 31.11236572 C7.17910604 35.99173435 7.15946207 40.87098365 7.1373291 45.75030518 C7.11685927 50.73065578 7.10773291 55.71102569 7.09765625 60.69140625 C7.07621571 70.46098989 7.04208612 80.23048502 7 90 C8.22106445 89.99442581 9.44212891 89.98885162 10.70019531 89.98310852 C12.32617152 89.97859925 13.95214811 89.97422726 15.578125 89.9699707 C16.38008301 89.9659449 17.18204102 89.9619191 18.00830078 89.9577713 C24.73042415 89.944602 31.32379913 90.38814148 38 91.1875 C39.13808105 91.3205957 40.27616211 91.45369141 41.44873047 91.59082031 C105.04962257 99.42590334 171.3908824 124.20050164 212 176 C244.66873199 218.13702091 255.94619833 272.8028764 250.17773438 325.29589844 C246.87266849 350.8969034 239.32761171 375.30543052 227 398 C226.38640625 399.1653125 225.7728125 400.330625 225.140625 401.53125 C212.53290055 424.6627775 193.78918924 445.9455214 173 462 C172.45923828 462.42249023 171.91847656 462.84498047 171.36132812 463.28027344 C161.70752491 470.78087309 151.52724746 477.00563115 140.84667969 482.93774414 C139.19017191 483.89060841 137.59005842 484.93996106 136 486 C130.03070265 487.29334776 126.40064145 487.32347166 121 484 C117.77913284 480.49221652 116.98287447 478.0328835 117.0625 473.23046875 C117.814491 468.2872673 120.36694981 465.25803689 123.5 461.5 C146.18493619 432.73620453 153.4784893 398.82320562 149.23071289 362.60107422 C145.87657763 338.66401283 137.96837344 317.03744583 123 298 C122.08347656 296.78957031 122.08347656 296.78957031 121.1484375 295.5546875 C101.42995484 271.31919559 67.0734502 259.77407463 37.0372467 256.5783844 C32.63662655 256.15481457 28.2326031 255.77156119 23.828125 255.390625 C22.28724022 255.25442965 20.74638704 255.11787622 19.20556641 254.98095703 C15.47073243 254.64984807 11.73549584 254.32356698 8 254 C8.00999275 255.58067513 8.00999275 255.58067513 8.02018738 257.19328308 C8.08100733 267.12509017 8.12597692 277.05685946 8.15543652 286.98881054 C8.17109116 292.09491425 8.19232588 297.20086759 8.22631836 302.30688477 C8.2589188 307.23465261 8.27685453 312.16227584 8.28463173 317.0901432 C8.29017399 318.97001738 8.30099666 320.84988367 8.31719017 322.72969627 C8.33897353 325.36318429 8.34196655 327.99607503 8.34057617 330.62963867 C8.351362 331.40647507 8.36214783 332.18331146 8.3732605 332.98368835 C8.34148447 338.54740361 7.14621257 341.77429807 3.3125 345.75 C0.0316789 347.52341681 -3.30134737 348.30273669 -7 348 C-12.42314949 345.7912149 -15.89510492 342.52721353 -19.93414307 338.44007874 C-20.60756107 337.77063514 -21.28097908 337.10119154 -21.97480369 336.41146177 C-24.22508708 334.17078791 -26.46450914 331.91956879 -28.70410156 329.66821289 C-30.31685554 328.05788727 -31.93025484 326.44820771 -33.54425049 324.83912659 C-37.92273568 320.47004673 -42.29175303 316.09161098 -46.65887165 311.7111733 C-51.22822882 307.13050261 -55.80529317 302.55754464 -60.38128662 297.98350525 C-68.06312242 290.30255232 -75.73898681 282.61567878 -83.41113281 274.92504883 C-91.30479084 267.0123782 -99.20439342 259.1057034 -107.11035156 251.20532227 C-116.64045208 241.68192459 -126.16553787 232.15355026 -135.68602753 222.62054253 C-139.32219812 218.97972239 -142.96025213 215.34079961 -146.59980011 211.70335579 C-150.88239996 207.42263645 -155.15998489 203.13696816 -159.43370819 198.84738731 C-161.00498754 197.27185764 -162.57797636 195.69803074 -164.152771 194.12601471 C-166.29776829 191.98422897 -168.43653761 189.83641365 -170.5737915 187.68690491 C-171.51608718 186.75027821 -171.51608718 186.75027821 -172.47741914 185.79472977 C-173.04897792 185.2173388 -173.62053669 184.63994783 -174.20941544 184.04506016 C-174.70359663 183.55001218 -175.19777783 183.05496421 -175.70693421 182.54491478 C-178.0565204 179.73770229 -178.94367257 177.36612832 -179.5 173.75 C-178.4709275 166.03195624 -171.58942017 160.2951126 -166.24462891 154.9839325 C-165.59036737 154.32584542 -164.93610584 153.66775834 -164.2620182 152.98972923 C-162.08823945 150.80570595 -159.90746022 148.62881702 -157.7265625 146.4519043 C-156.15867158 144.87966235 -154.59119791 143.30700423 -153.02410889 141.73396301 C-148.7810281 137.47752759 -144.53160142 133.22748262 -140.28057098 128.97898841 C-136.72981495 125.42930383 -133.18204373 121.87664339 -129.63421822 118.32403022 C-120.78880327 109.46690094 -111.93712325 100.61605832 -103.08263421 91.76800302 C-95.39805244 84.08859628 -87.72173003 76.40099345 -80.04923844 68.70950904 C-72.16046073 60.80135358 -64.26598854 52.89891566 -56.36578178 45.00217563 C-51.93459612 40.5728037 -47.50566982 36.14123047 -43.08233643 31.70401573 C-38.92592165 27.53504465 -34.76234156 23.37336601 -30.59311676 19.21720695 C-29.06430541 17.69076516 -27.53805037 16.16175816 -26.01454926 14.63001633 C-23.93501884 12.5400501 -21.84646297 10.45953853 -19.75537109 8.38114929 C-19.15438913 7.77279305 -18.55340717 7.1644368 -17.93421364 6.53764552 C-12.40933277 1.08316076 -7.99750137 -2.03572762 0 0 Z " transform="translate(220,13)" style="fill: #000000;"/></svg>