{
  "type": "chordcanvas-progression",
  "version": 4,
  "savedAt": "2026-03-31T11:29:12.755Z",
  "key": {
    "name": "C Ionian",
    "root": "C",
    "mode": "Ionian"
  },
  "sequence": {
    "tempoBpm": 100,
    "timeSignature": "4/4"
  },
  "items": [
    {
      "position": 1,
      "chord": "C",
      "durationBeats": 2,
      "sustain": true,
      "voicing": {
        "source": "keyboard",
        "velocityMode": "basic",
        "notes": [
          {
            "midi": 36,
            "velocity": 84
          },
          {
            "midi": 60,
            "velocity": 84
          },
          {
            "midi": 64,
            "velocity": 84
          },
          {
            "midi": 67,
            "velocity": 84
          }
        ]
      }
    },
    {
      "position": 2,
      "chord": "Dm",
      "durationBeats": 1,
      "sustain": true,
      "voicing": {
        "source": "keyboard",
        "velocityMode": "basic",
        "notes": [
          {
            "midi": 38,
            "velocity": 84
          },
          {
            "midi": 62,
            "velocity": 84
          },
          {
            "midi": 65,
            "velocity": 84
          },
          {
            "midi": 69,
            "velocity": 84
          }
        ]
      }
    },
    {
      "position": 3,
      "chord": "Em",
      "durationBeats": 1,
      "sustain": true,
      "voicing": {
        "source": "keyboard",
        "velocityMode": "basic",
        "notes": [
          {
            "midi": 40,
            "velocity": 84
          },
          {
            "midi": 64,
            "velocity": 84
          },
          {
            "midi": 67,
            "velocity": 84
          },
          {
            "midi": 71,
            "velocity": 84
          }
        ]
      }
    },
    {
      "position": 4,
      "chord": "F",
      "durationBeats": 3,
      "sustain": true,
      "voicing": {
        "source": "keyboard",
        "velocityMode": "basic",
        "notes": [
          {
            "midi": 41,
            "velocity": 84
          },
          {
            "midi": 65,
            "velocity": 84
          },
          {
            "midi": 69,
            "velocity": 84
          },
          {
            "midi": 72,
            "velocity": 84
          }
        ]
      }
    },
    {
      "position": 5,
      "chord": "Bdim/G#",
      "durationBeats": 1,
      "sustain": true,
      "voicing": {
        "source": "keyboard",
        "velocityMode": "basic",
        "notes": [
          {
            "midi": 44,
            "velocity": 84
          },
          {
            "midi": 71,
            "velocity": 84
          },
          {
            "midi": 74,
            "velocity": 84
          },
          {
            "midi": 77,
            "velocity": 84
          }
        ]
      }
    },
    {
      "position": 6,
      "chord": "Am",
      "durationBeats": 3,
      "sustain": true,
      "voicing": {
        "source": "keyboard",
        "velocityMode": "basic",
        "notes": [
          {
            "midi": 45,
            "velocity": 84
          },
          {
            "midi": 69,
            "velocity": 84
          },
          {
            "midi": 72,
            "velocity": 84
          },
          {
            "midi": 76,
            "velocity": 84
          }
        ]
      }
    },
    {
      "position": 7,
      "chord": "E7/B",
      "durationBeats": 1,
      "sustain": true,
      "voicing": {
        "source": "keyboard",
        "velocityMode": "basic",
        "notes": [
          {
            "midi": 47,
            "velocity": 84
          },
          {
            "midi": 59,
            "velocity": 84
          },
          {
            "midi": 64,
            "velocity": 84
          },
          {
            "midi": 68,
            "velocity": 84
          },
          {
            "midi": 71,
            "velocity": 84
          },
          {
            "midi": 74,
            "velocity": 84
          }
        ]
      }
    },
    {
      "position": 8,
      "chord": "Am/C",
      "durationBeats": 3,
      "sustain": true,
      "voicing": {
        "source": "keyboard",
        "velocityMode": "basic",
        "notes": [
          {
            "midi": 36,
            "velocity": 84
          },
          {
            "midi": 48,
            "velocity": 84
          },
          {
            "midi": 60,
            "velocity": 84
          },
          {
            "midi": 69,
            "velocity": 84
          },
          {
            "midi": 72,
            "velocity": 84
          },
          {
            "midi": 76,
            "velocity": 84
          }
        ]
      }
    },
    {
      "position": 9,
      "chord": "A7/C#",
      "durationBeats": 1,
      "sustain": true,
      "voicing": {
        "source": "keyboard",
        "velocityMode": "basic",
        "notes": [
          {
            "midi": 37,
            "velocity": 84
          },
          {
            "midi": 61,
            "velocity": 84
          },
          {
            "midi": 69,
            "velocity": 84
          },
          {
            "midi": 73,
            "velocity": 84
          },
          {
            "midi": 76,
            "velocity": 84
          },
          {
            "midi": 79,
            "velocity": 84
          }
        ]
      }
    },
    {
      "position": 10,
      "chord": "Dm7",
      "durationBeats": 3,
      "sustain": true,
      "voicing": {
        "source": "keyboard",
        "velocityMode": "basic",
        "notes": [
          {
            "midi": 38,
            "velocity": 84
          },
          {
            "midi": 50,
            "velocity": 56
          },
          {
            "midi": 62,
            "velocity": 56
          },
          {
            "midi": 65,
            "velocity": 56
          },
          {
            "midi": 69,
            "velocity": 56
          },
          {
            "midi": 72,
            "velocity": 56
          },
          {
            "midi": 77,
            "velocity": 127
          }
        ]
      }
    },
    {
      "position": 11,
      "chord": "Eb",
      "durationBeats": 1,
      "sustain": true,
      "voicing": {
        "source": "keyboard",
        "velocityMode": "basic",
        "notes": [
          {
            "midi": 39,
            "velocity": 84
          },
          {
            "midi": 51,
            "velocity": 56
          },
          {
            "midi": 67,
            "velocity": 56
          },
          {
            "midi": 70,
            "velocity": 56
          },
          {
            "midi": 75,
            "velocity": 112
          }
        ]
      }
    },
    {
      "position": 12,
      "chord": "Dm",
      "durationBeats": 3,
      "sustain": true,
      "voicing": {
        "source": "keyboard",
        "velocityMode": "basic",
        "notes": [
          {
            "midi": 38,
            "velocity": 84
          },
          {
            "midi": 50,
            "velocity": 56
          },
          {
            "midi": 57,
            "velocity": 56
          },
          {
            "midi": 62,
            "velocity": 56
          },
          {
            "midi": 65,
            "velocity": 56
          },
          {
            "midi": 69,
            "velocity": 56
          },
          {
            "midi": 74,
            "velocity": 112
          }
        ]
      }
    },
    {
      "position": 13,
      "chord": "F#9/C#",
      "durationBeats": 4,
      "sustain": true,
      "voicing": {
        "source": "keyboard",
        "velocityMode": "basic",
        "notes": [
          {
            "midi": 37,
            "velocity": 84
          },
          {
            "midi": 51,
            "velocity": 84
          },
          {
            "midi": 64,
            "velocity": 84
          },
          {
            "midi": 68,
            "velocity": 84
          },
          {
            "midi": 70,
            "velocity": 84
          },
          {
            "midi": 73,
            "velocity": 84
          },
          {
            "midi": 78,
            "velocity": 84
          },
          {
            "midi": 80,
            "velocity": 84
          }
        ]
      }
    },
    {
      "position": 14,
      "chord": "C",
      "durationBeats": 8,
      "sustain": false,
      "voicing": {
        "source": "keyboard",
        "velocityMode": "basic",
        "notes": [
          {
            "midi": 36,
            "velocity": 84
          },
          {
            "midi": 48,
            "velocity": 84
          },
          {
            "midi": 60,
            "velocity": 84
          },
          {
            "midi": 64,
            "velocity": 84
          },
          {
            "midi": 67,
            "velocity": 84
          },
          {
            "midi": 72,
            "velocity": 84
          },
          {
            "midi": 84,
            "velocity": 84
          }
        ]
      }
    }
  ]
}